<?xml version="1.0" encoding="utf-8"?>
<svg viewBox="-11.501 -11.478 24 106.956" xmlns="http://www.w3.org/2000/svg">
  <line x1="0.5" y1="6.10352e-05" x2="0.5" y2="84.0001" stroke="#B6BAD1" stroke-dasharray="2 2" transform="matrix(0.9999999999999999, 0, 0, 0.9999999999999999, 0, -7.105427357601002e-15)"/>
  <rect x="-4.999" y="-11.478" width="11" height="11" fill="transparent"  rx="5.5" stroke="#B6BAD1" style="paint-order: stroke;" transform="matrix(0.9999999999999999, 0, 0, 0.9999999999999999, 0, -7.105427357601002e-15)"/>
  <rect width="24" height="24" x="-11.501" y="30.001" fill="#F7F7F9" transform="matrix(0.9999999999999999, 0, 0, 0.9999999999999999, 0, -7.105427357601002e-15)"/>
  <path d="M 0.498 49.525 C -0.16 49.525 -0.69 48.988 -0.685 48.326 L -0.685 43.926 L -6.996 39.927 L -7.002 38.327 L -0.69 40.334 L -0.69 35.923 L -2.27 34.73 L -2.264 33.525 L 0.493 34.328 L 3.261 33.525 L 3.272 34.735 L 1.67 35.94 L 1.67 40.317 L 7.998 38.327 L 7.993 39.927 L 1.681 43.926 L 1.681 48.326 C 1.692 48.971 1.134 49.536 0.498 49.525 Z" fill="#A6A8B6" transform="matrix(0.9999999999999999, 0, 0, 0.9999999999999999, 0, -7.105427357601002e-15)"/>
  <rect x="-5" y="84.478" width="11" height="11" fill="transparent" rx="5.5" style="stroke: rgb(182, 186, 209);" transform="matrix(0.9999999999999999, 0, 0, 0.9999999999999999, 0, -7.105427357601002e-15)"/>
</svg>