<svg width="20" height="21" viewBox="0 0 20 21" fill="none" stroke="#6A6E85" xmlns="http://www.w3.org/2000/svg">
<g clip-path="url(#clip0_1567_1470)">
<path d="M9.99992 14.6667H3.33325C3.78737 14.4095 4.17476 14.0493 4.46424 13.6151C4.75372 13.1809 4.93721 12.6848 4.99992 12.1667V9.66667C5.04955 8.60923 5.386 7.58523 5.97321 6.70442C6.56042 5.82361 7.37624 5.11919 8.33325 4.66667C8.33325 4.22464 8.50885 3.80072 8.82141 3.48816C9.13397 3.17559 9.55789 3 9.99992 3C10.4419 3 10.8659 3.17559 11.1784 3.48816C11.491 3.80072 11.6666 4.22464 11.6666 4.66667C12.6236 5.11919 13.4394 5.82361 14.0266 6.70442C14.6138 7.58523 14.9503 8.60923 14.9999 9.66667V10.0833M15.8341 18C15.3921 18 14.9681 17.8244 14.6556 17.5118C14.343 17.1993 14.1674 16.7754 14.1674 16.3333C14.1674 15.8913 14.343 15.4674 14.6556 15.1548C14.9681 14.8423 15.3921 14.6667 15.8341 14.6667M15.8341 18C16.2761 18 16.7 17.8244 17.0126 17.5118C17.3252 17.1993 17.5008 16.7754 17.5008 16.3333C17.5008 15.8913 17.3252 15.4674 17.0126 15.1548C16.7 14.8423 16.2761 14.6667 15.8341 14.6667M15.8341 18V19.25M15.8341 14.6667V13.4167M18.3599 14.875L17.2774 15.5M14.3916 17.1667L13.3083 17.7917M13.3083 14.875L14.3916 15.5M17.2774 17.1667L18.3608 17.7917M7.49992 14.6667V15.5C7.49992 16.163 7.76331 16.7989 8.23215 17.2678C8.70099 17.7366 9.33688 18 9.99992 18" stroke-width="2" stroke-linecap="round" stroke-linejoin="round"/>
</g>
<defs>
<clipPath id="clip0_1567_1470">
<rect width="20" height="20" fill="white" transform="translate(0 0.5)"/>
</clipPath>
</defs>
</svg>
