<svg width="20" height="20" viewBox="0 0 20 20" fill="none" xmlns="http://www.w3.org/2000/svg">
<g clip-path="url(#clip0_2089_3132)">
<path d="M13.2376 7.99476L9.99984 7.21531V5.99616C9.99984 5.73112 9.89456 5.47695 9.70716 5.28954C9.51975 5.10214 9.26557 4.99685 9.00054 4.99685C8.73551 4.99685 8.48133 5.10214 8.29393 5.28954C8.10652 5.47695 8.00124 5.73112 8.00124 5.99616V7.21531L4.7635 7.99476C4.49847 8.05837 4.26956 8.22465 4.12713 8.45704C3.9847 8.68942 3.94042 8.96887 4.00403 9.2339C4.06763 9.49893 4.23392 9.72784 4.4663 9.87027C4.69869 10.0127 4.97813 10.057 5.24316 9.99337L8.00124 9.27387V10.3731L6.55225 11.1026C6.42539 11.1554 6.31079 11.2338 6.21561 11.333C6.12043 11.4321 6.04672 11.5498 5.99908 11.6787C5.95144 11.8076 5.93089 11.9449 5.93873 12.0821C5.94656 12.2193 5.98261 12.3534 6.04461 12.476C6.10662 12.5986 6.19325 12.7072 6.29909 12.7948C6.40494 12.8824 6.52772 12.9473 6.65977 12.9854C6.79182 13.0234 6.93029 13.0338 7.06654 13.0159C7.20279 12.998 7.33388 12.9522 7.45162 12.8814L9.00054 12.1119L10.5495 12.8814C10.6877 12.9553 10.8424 12.9932 10.9991 12.9913C11.1837 12.9907 11.3645 12.9391 11.5214 12.8421C11.6784 12.745 11.8055 12.6065 11.8885 12.4417C12.0071 12.2057 12.0273 11.9323 11.945 11.6814C11.8626 11.4305 11.6842 11.2224 11.4488 11.1026L9.99984 10.3731V9.27387L12.7579 9.96339L12.9978 9.99337C13.2628 10.0252 13.5296 9.95039 13.7395 9.78547C13.9494 9.62055 14.0852 9.37901 14.117 9.11398C14.1488 8.84895 14.074 8.58214 13.9091 8.37224C13.7442 8.16235 13.5026 8.02657 13.2376 7.99476Z" fill="#6A6E85"/>
<path d="M19.7031 18.2776L16.0657 14.6501C16.0657 14.6501 16.0657 14.6501 16.0157 14.6501C17.453 12.8551 18.1481 10.5777 17.9583 8.28606C17.7684 5.99439 16.7079 3.86249 14.9948 2.32851C13.2817 0.794526 11.0461 -0.0250015 8.74747 0.0383524C6.44882 0.101706 4.26174 1.04313 2.63573 2.66914C1.00972 4.29515 0.0682973 6.48223 0.00494332 8.78088C-0.0584106 11.0795 0.761117 13.3151 2.2951 15.0282C3.82908 16.7414 5.96098 17.8018 8.25265 17.9917C10.5443 18.1816 12.8217 17.4864 14.6167 16.0491C14.6167 16.0491 14.6167 16.0491 14.6167 16.0991L18.2441 19.7365C18.337 19.8302 18.4476 19.9045 18.5693 19.9553C18.6911 20.006 18.8217 20.0321 18.9537 20.0321C19.0856 20.0321 19.2162 20.006 19.338 19.9553C19.4597 19.9045 19.5703 19.8302 19.6632 19.7365C19.7656 19.6458 19.8483 19.5351 19.9062 19.4111C19.9641 19.2871 19.9959 19.1525 19.9996 19.0157C20.0034 18.8789 19.979 18.7428 19.928 18.6159C19.877 18.4889 19.8005 18.3737 19.7031 18.2776ZM9.0006 15.9892C7.61709 15.9892 6.26466 15.5789 5.11432 14.8103C3.96397 14.0416 3.06739 12.9491 2.53795 11.671C2.0085 10.3928 1.86998 8.98628 2.13989 7.62935C2.40979 6.27243 3.07601 5.02602 4.0543 4.04774C5.03258 3.06945 6.279 2.40323 7.63592 2.13332C8.99284 1.86342 10.3993 2.00194 11.6775 2.53139C12.9557 3.06083 14.0482 3.95741 14.8168 5.10775C15.5855 6.2581 15.9957 7.61053 15.9957 8.99403C15.9957 10.8493 15.2587 12.6285 13.9469 13.9403C12.6351 15.2522 10.8558 15.9892 9.0006 15.9892Z" fill="#6A6E85"/>
</g>
<defs>
<clipPath id="clip0_2089_3132">
<rect width="20" height="20" fill="white"/>
</clipPath>
</defs>
</svg>
