<svg width="20" height="21" viewBox="0 0 20 21" fill="#6A6E85" xmlns="http://www.w3.org/2000/svg">
<g id="carbon:star-review">
<path id="Vector" d="M11.25 16.75H16.25V18H11.25V16.75ZM11.25 14.25H18.75V15.5H11.25V14.25ZM11.25 11.75H18.75V13H11.25V11.75Z"/>
<path id="Vector_2" d="M12.8432 7.51062L10 1.75L7.15692 7.51062L0.800049 8.43437L5.40005 12.9188L4.3138 19.25L8.75005 16.9181V15.5056L5.97442 16.965L6.63192 13.13L6.74317 12.4819L6.27255 12.0238L3.4863 9.30687L7.33692 8.7475L7.98692 8.65312L8.27817 8.06375L10 4.57438L11.7219 8.06375L12.0132 8.65312L12.6632 8.7475L17.3219 9.42562L17.5 8.1875L12.8432 7.51062Z"/>
</g>
</svg>
