<?xml version="1.0" encoding="utf-8"?>
<!-- Generator: Adobe Illustrator 22.0.1, SVG Export Plug-In . SVG Version: 6.00 Build 0)  -->
<svg version="1.1" id="Layer_1" xmlns="http://www.w3.org/2000/svg" xmlns:xlink="http://www.w3.org/1999/xlink" x="0px" y="0px"
	 width="1191.1px" height="180px" viewBox="0 0 1191.1 180" style="enable-background:new 0 0 1191.1 180;" xml:space="preserve">
<style type="text/css">
	.st0{fill:#1A56A1;}
	.st1{fill:#D02128;}
	.st2{fill:#1F3E76;}
</style>
<g>
	<path class="st0" d="M1086.7,78.5c-0.9-2.8-2-5.5-3-8.3c-3.1-8.6-6.3-17.1-9.4-25.7c-2.8-7.6-5.6-15.1-8.3-22.7
		c-0.3-0.9-0.8-1.2-1.7-1.1c-4.8,0-9.5,0-14.3,0c-0.4,0-0.7,0.1-1.1,0.1c-0.1,0.1-0.2,0.1-0.3,0.2c3.2,2,2.1,4.4,1.1,6.9
		c-6.6,17-13.3,34-19.9,51.1c-0.9,2.4-2.1,4.7-4.4,6.1c-0.1,0-0.1,0.2-0.1,0.4c4.1,0,8.2,0,12.3,0c0.1-0.1,0.2-0.1,0.3-0.2
		c-1.8-0.9-1.2-2.1-0.7-3.3c2.1-5.3,4.2-10.6,6.2-15.9c0.3-0.7,0.6-1,1.4-1.1c4.6-0.1,9.1-0.3,13.7-0.3c2.7,0,5.3,0.2,8,0.3
		c0.5,0,1.1,0.5,1.3,0.9c1.8,4.8,3.6,9.6,5.3,14.4c0.6,1.7,1.6,3.4-0.1,5.1c1.8,0.5,17.7,0.3,18.4-0.2
		C1088.9,83.7,1087.7,81.2,1086.7,78.5z M1046.6,58.3c3.2-8.2,6.3-16.3,9.5-24.3c0.1,0,0.2,0,0.3,0c2.9,8,5.8,16,8.8,24.3
		C1059,58.3,1052.9,58.3,1046.6,58.3z M464.7,52.6c-1.7-0.6-3.4-0.9-5.1-1.3c0-0.1,0.1-0.2,0.1-0.2c0.2-0.1,0.4-0.2,0.7-0.3
		c4.2-1.7,7.4-4.4,8.9-8.7c1.9-5.7,0-12.9-5.3-16.9c-3.9-3-8.5-4.4-13.3-4.5c-9.1-0.2-18.2-0.1-27.2-0.2c-0.3,0-0.6,0.1-1.3,0.2
		c3,2.1,2.9,5,2.9,7.8c0,16.6,0,33.3,0,49.9c0,0.8,0.1,1.5-0.1,2.3c-0.4,1.8-0.8,3.5-2.8,4.2c0,0.1,0,0.2,0,0.2
		c0.4,0.1,0.8,0.2,1.2,0.2c10,0,20,0.1,30-0.1c5.2-0.1,10.2-1.5,14.7-4.2c6.5-4,8.9-10.4,7.5-17.3C474.1,58.1,470.2,54.6,464.7,52.6
		z M439.8,26.7c2.5,0.1,5.1,0,7.6,0.4c5.5,0.9,8,3.9,8.6,9.5c0.7,6-2.6,10.7-8.6,11.8c-2.5,0.5-5.2,0.5-7.7,0.8
		c-0.9,0.1-1.2-0.3-1.2-1.2c0-3.4,0-6.7,0-10.1c0-3.3,0-6.6,0-10C438.6,27.1,438.8,26.6,439.8,26.7z M458.7,73.7
		c-1.5,3.1-4,4.8-7.3,5.5c-4,0.9-8,0.5-12,0c-0.8-0.1-0.8-0.7-0.8-1.2c0-3.6,0-7.2,0-10.8c0-3.5,0-7,0-10.5c0-0.9,0.3-1.3,1.2-1.3
		c4.4-0.2,8.9-0.3,13.2,1.2c4.3,1.5,6.9,5,7,9.6C460.1,68.7,459.9,71.3,458.7,73.7z M1179.9,60.6c3.6,7.9,1,18.4-8.1,23
		c-3.2,1.6-6.5,2.6-10.1,2.9c-0.3,0-0.7,0.3-1,0.5c-2.3,0-4.6,0-7,0c-0.5-0.2-0.9-0.4-1.4-0.5c-4.4-0.4-8.7-1.4-12.8-3.3
		c-1.7-0.8-2.6-1.8-2.6-3.7c0.1-3.7,0.2-7.3,0.3-11c0-0.3,0.1-0.6,0.3-1.3c0.4,0.7,0.6,1.1,0.9,1.5c2.6,4.9,6.3,8.7,11.6,10.6
		c4,1.5,8.1,1.5,12.2,0c5.1-2,6.6-9.5,3.2-13.6c-2.1-2.6-4.8-4.3-7.5-6.2c-3.9-2.6-7.8-5.1-11.5-8c-3.4-2.6-6.1-5.8-7.3-10
		c-2.6-8.4,0.3-16.5,9.5-20c5.6-2.1,11.5-2.3,17.4-1.6c2.7,0.3,5.3,1,8,1.6c1.1,0.2,1.6,0.8,1.7,2c0.1,3.4,0.4,6.8,0.6,10.6
		c-0.5-0.5-0.8-0.7-1-1c-3.8-5.5-8.9-8.2-15.6-7.7c-1.4,0.1-2.9,0.6-4.2,1.2c-3.8,2-4.8,6.4-2.5,10.3c1.5,2.5,3.7,4.3,6.1,5.9
		c4,2.7,8.2,5.3,12.2,8.1C1174.9,53.7,1178,56.6,1179.9,60.6z M706.6,63.9c1.5,7.3-1.1,14.5-7.5,18.7c-3.6,2.3-7.5,3.5-11.7,4
		c-0.4,0-0.7,0.3-1.1,0.5c-2.3,0-4.6,0-7,0c-0.4-0.2-0.8-0.4-1.3-0.5c-4.5-0.4-8.8-1.4-12.9-3.3c-1.6-0.7-2.5-1.7-2.5-3.5
		c0.1-3.9,0.2-7.8,0.4-11.7c0-0.1,0.1-0.3,0.3-0.6c0.3,0.5,0.5,0.9,0.7,1.3c2.9,5.5,7.1,9.5,13.3,11.2c3.8,1,7.6,0.9,11.2-0.9
		c4.4-2.2,5.9-9.3,2.3-13.5c-2.2-2.5-4.9-4.3-7.6-6.2c-3.8-2.6-7.6-5-11.2-7.8c-3.4-2.5-6-5.8-7.2-9.9c-2.4-7.9,0-15.8,8.4-19.5
		c5.9-2.6,12.2-2.8,18.5-2.1c2.7,0.3,5.4,1.1,8.1,1.6c1.1,0.2,1.6,0.9,1.6,2.1c0.1,3.2,0.4,6.5,0.6,9.7c0,0.1,0,0.3-0.1,0.8
		c-0.4-0.5-0.7-0.7-0.9-1c-4-5.7-9.4-8.4-16.4-7.5c-3.3,0.4-5.9,2-6.8,5.5c-0.6,2.5,0.1,4.8,1.5,6.8c2.1,3,5.2,4.9,8.2,6.9
		c4.1,2.8,8.3,5.5,12.3,8.5C703.1,56.2,705.6,59.6,706.6,63.9z M1032.1,29.3c-2.8,8.3-5.6,16.6-8.4,24.8c-2.8,8.2-5.5,16.4-8.3,24.6
		c-0.7,2-1.3,3.9-2,5.9c-0.2,0.8-0.7,1-1.4,0.9c-1.8-0.2-3.5-0.8-4.3-2.6c-1.5-3-3-6.1-4.3-9.2c-3.1-7.7-6.1-15.5-9.2-23.3
		c0-0.1-0.1-0.2-0.4-0.5c-0.4,1.1-0.8,2-1.1,2.9c-3.7,10.5-7.4,21.1-11.1,31.6c-0.3,0.8-0.7,1.2-1.6,1.1c-1.4-0.1-2.7-0.1-4.1,0
		c-0.8,0-1.2-0.3-1.5-1c-2.5-6.8-5.1-13.5-7.6-20.3c-4-10.5-7.9-21-11.9-31.5c-0.6-1.5-1.1-3-1.6-4.5c-1.1-2.8-2.3-5.6-5.1-7.2
		c0.7-0.6,17.3-0.8,18.7-0.2c-2.1,2.2-0.7,4.3,0.1,6.5c4.2,11.5,8.5,22.9,12.7,34.4c0.2,0.6,0.5,1.2,0.9,2.1
		c5.1-14.5,10-28.7,15.1-42.9c0.2,0,0.3,0,0.5,0.1c5.5,13.7,10.9,27.4,16.5,41.4c0.8-2.2,1.4-4.1,2-6c2.6-7.9,5.3-15.7,7.9-23.6
		c1-2.9,2-5.8,2.9-8.8c0.3-1-0.1-2.1-0.1-3.3c3.7,0,7.7,0,11.7,0c0,0.2,0,0.4-0.1,0.4C1034.2,23.2,1033.1,26.2,1032.1,29.3z
		 M774.6,85.5c-6.6,0-12.7,0-18.7,0c0.7-1.4,1.4-2.7,2-4c0.2-0.5,0.2-1.1,0.2-1.6c0-7.7,0-15.4,0-23c0-0.3-0.1-0.6-0.1-1.1
		c-3.2-0.2-6.3-0.4-9.5-0.4c-5.5,0-10.9,0.2-16.4,0.3c-1.1,0-1.4,0.4-1.4,1.5c0.1,7.1,0,14.2,0,21.4c0,3.6,0.2,4.3,2.6,7
		c-6.3,0-12.5,0-19.1,0c2.9-2.2,2.9-5,2.8-7.9c0-16.6,0-33.1,0-49.7c0-2.6-0.3-5-2.5-6.8c0.7-0.5,17.1-0.7,18.6-0.2
		c0,0.1,0,0.3-0.1,0.4c-1.7,1.4-2.2,3.3-2.2,5.5c0,6.9,0,13.8,0,20.6c0,0.2,0,0.5,0.1,0.8c9.1,0.8,18.1,0.8,27.3,0
		c0-0.5,0-0.9,0-1.3c0-6,0-11.9,0-17.9c0-3.6,0.3-4.8-2.5-8.2c6.3,0,12.4,0,18.5,0c0,0.1,0.1,0.3,0,0.3c-2,1.8-2.3,4.2-2.3,6.8
		c0,16.4,0,32.9,0,49.3C771.8,80.2,771.6,83.2,774.6,85.5z M957,81.1c-2.3-2.2-4.6-4.6-6.6-7.1c-3.3-4.2-6.3-8.6-9.6-12.9
		c-2.4-3.1-5.1-6-8.7-7.7c-0.6-0.3-1.1-0.5-2-0.8c0.4-0.1,0.6-0.2,0.8-0.2c6.2-1.1,12.5-5.9,13.4-13.2c0.7-5.3-0.8-9.7-4.9-13.2
		c-4.2-3.5-9.3-5-14.7-5.1c-8.5-0.3-17-0.2-25.4-0.2c-0.3,0-0.6,0.1-1.4,0.2c3.2,2.2,3,5.3,3,8.3c0,14,0,27.9,0,41.9
		c0,2.9,0,5.8,0,8.8c0,1.9-0.5,3.6-2,4.9c-0.2,0.2-0.4,0.4-0.8,0.7c6.5,0,12.8,0,19,0c-1.6-1.5-2.4-3.3-2.4-5.3c0-8,0-16.1,0-24.1
		c0-0.7,0.3-1,0.9-0.8c1,0.2,2,0.4,2.9,0.7c3.1,1.1,5.5,3.2,7.3,5.8c2.7,3.9,5.1,8,7.7,11.8c2.2,3.2,4.7,6.3,7.1,9.3
		c1.1,1.3,2.5,2.4,4.3,2.7c6.2,1,12.3,0.5,18.3-0.9c0.2,0,0.3-0.2,0.6-0.4c-0.3-0.1-0.4-0.2-0.6-0.2C960.9,83.7,958.7,82.7,957,81.1
		z M928.9,42.7c-1.6,3.6-4.5,5.5-8.2,6.1c-1.7,0.3-3.4,0.2-5.1,0.2c-0.7,0-1-0.3-1-1.1c0-6.7,0-13.4,0-20c0-0.9,0.3-1.2,1.2-1.2
		c0.8,0,1.5-0.1,2.3-0.1c2.8,0,5.4,0.5,7.8,2c2.3,1.5,3.5,3.7,3.9,6.3C930.1,37.5,930,40.1,928.9,42.7z M544.2,84
		c-1.6-0.6-3.2-1-4.7-1.8c-3.1-1.7-5.4-4.3-7.5-7.1c-3.6-4.8-7-9.7-10.6-14.5c-2.2-2.9-4.6-5.6-7.9-7.2c-0.5-0.2-1-0.5-1.3-0.6
		c2.3-0.8,4.7-1.3,6.8-2.3c10.2-4.7,11.3-19,2.4-25.1c-4.2-2.9-8.9-4.3-13.8-4.5c-8.5-0.2-17-0.1-25.4-0.2c-0.3,0-0.6,0.1-1.3,0.2
		c2.1,1.7,2.9,3.7,2.9,6c0,17.5,0,35,0,52.5c0,0.6-0.1,1.3-0.2,1.9c-0.3,1.6-1.1,2.9-2.4,4.1c6.3,0,12.6,0,19.2,0
		c-2.8-2-3.1-4.6-3-7.3c0-7.2,0-14.5,0-21.7c0-0.3,0-0.7,0-1.1c0.5,0,1-0.1,1.4,0c2.5,0.4,4.7,1.5,6.3,3.4c1.6,1.9,3.1,3.9,4.3,6
		c3.2,5.5,6.4,11,10.4,16c2.9,3.6,6.3,5.7,11,5.3c3.1-0.2,6.2-0.3,9.3-0.5c1.6-0.1,3.2-0.6,4.8-1c0-0.1,0-0.2,0-0.3
		C544.7,84.1,544.5,84,544.2,84z M503.2,48.9c-1.5,0.2-3.1,0.1-4.6,0.2c-0.9,0-1.2-0.3-1.1-1.2c0.1-3.3,0-6.6,0-9.9
		c0-3.3,0-6.6,0-9.8c0-0.9,0.3-1.3,1.2-1.3c2.7-0.2,5.4-0.1,8,0.8c3.8,1.3,5.7,4.1,6.1,8c0.3,2.2,0.2,4.4-0.6,6.5
		C510.6,46.1,507.4,48.2,503.2,48.9z M863.6,84.9c-1.8-1.2-3-2.7-3.7-4.7c-1.7-4.7-3.4-9.4-5.2-14.2c-5.4-14.7-10.8-29.5-16.1-44.2
		c-0.3-0.8-0.8-1.2-1.7-1.2c-4.8,0.1-9.5,0-14.3,0c-0.4,0-0.7,0.1-1.3,0.2c0.5,0.4,0.7,0.6,0.9,0.8c1.1,1.1,1.6,2.4,1,3.9
		c-2.1,5.4-4.1,10.7-6.2,16.1c-4.2,10.9-8.4,21.8-12.7,32.7c-1.5,3.9-2.3,8.3-6.4,10.8c0.1,0.1,0.1,0.2,0.2,0.3c4.1,0,8.2,0,12.3,0
		c0.1-0.1,0.2-0.1,0.3-0.2c-1.4-0.7-1.4-1.6-0.9-2.9c2.2-5.5,4.4-11,6.6-16.6c0.2-0.4,0.8-0.8,1.2-0.9c2.9-0.2,5.9-0.4,8.9-0.4
		c4.3,0,8.6,0.2,12.9,0.3c0.7,0,1,0.3,1.3,1c1.6,4.6,3.4,9.1,5.1,13.7c0,0.1,0,0.2,0.1,0.2c0.6,1.8,1.9,3.6,0,5.6
		c6.3,0,12.3,0,18.5,0C863.8,85.1,863.7,85,863.6,84.9z M819,58.3c3.2-8.3,6.4-16.4,9.6-24.8c3.1,8.4,6,16.4,9,24.8
		C831.3,58.3,825.3,58.3,819,58.3z M632.1,19.9c-0.2,0.5-0.3,1-0.5,1.3c-1.9,3.4-4.6,5.8-8.3,7c-0.7,0.2-1.5,0.3-2.2,0.3
		c-4.4-0.1-8.8-0.2-13.2-0.3c-1,0-1.3,0.2-1.3,1.2c0,16.7,0,33.3,0,50c0,2.4,0.7,4.4,2.7,6c-6.4,0-12.7,0-19.1,0
		c2.1-1.7,2.6-3.9,2.6-6.4c0-16.4,0-32.9,0-49.3c0-1.1-0.3-1.3-1.4-1.3c-4.6,0.1-9.3,0-13.9,0c-2.8,0-5.5,0.4-8,1.6
		c-0.2,0.1-0.4,0.1-0.9,0.2c0.4-1,0.8-1.8,1.1-2.5c0.9-1.9,1.8-3.8,2.7-5.8c0.4-1,1-1.3,2.1-1.3c15.8,0,31.6,0.1,47.4,0
		c3,0,6-0.5,9.1-0.7C631.2,19.9,631.5,19.9,632.1,19.9z M1137.7,21.1c-0.5,0.4-1.2,0.7-1.6,1.2c-1.6,2-3.4,3.8-4.7,6
		c-4.9,8.3-9.6,16.8-14.4,25.2c-0.4,0.7-0.6,1.5-0.6,2.3c0,7.6,0,15.2,0,22.8c0,2.6,0.2,5.1,2.8,7c-6.6,0-12.7,0-18.7,0
		c0.6-1.2,1.4-2.3,1.9-3.5c0.3-0.7,0.3-1.5,0.3-2.2c0-8.1,0-16.2,0-24.2c0-0.7-0.2-1.5-0.6-2.1c-4.6-7.5-9.3-14.9-14-22.3
		c-2.2-3.5-4.9-6.7-8.8-8.4c-0.9-0.4-1.8-0.6-2.7-0.9c0-0.1,0-0.3,0-0.4c1.5-0.3,2.9-0.7,4.4-0.9c4-0.6,8-1,12-0.1
		c2.9,0.6,5,2.5,6.6,4.8c4,6.2,7.9,12.4,11.9,18.6c0.4,0.6,0.8,1.2,1.3,2.1c1.4-2.4,2.6-4.6,3.8-6.7c2.6-4.7,5.3-9.3,7.9-14
		c0.8-1.4,1.6-2.7-0.3-4.1c0.1-0.1,0.2-0.1,0.3-0.2c4.3,0,8.7,0,13,0C1137.7,20.9,1137.7,21,1137.7,21.1z M651.2,26.8
		c0,17.6,0,35.2,0,52.8c0,2.3,0.7,4.3,2.7,5.9c-6.4,0-12.8,0-19.5,0c0.6-0.6,1.1-1,1.5-1.4c1.2-1.4,1.5-3,1.5-4.8c0-9.5,0-19,0-28.4
		c0-7.3,0-14.6,0-22c0-3,0.1-5.9-2.9-7.8c0.1-0.1,0.1-0.2,0.2-0.2c6.4,0,12.7,0,19.3,0c-0.2,0.3-0.2,0.5-0.3,0.5
		C651.8,22.7,651.2,24.6,651.2,26.8z M563.3,28.3c0,16.5,0,32.9,0,49.4c0,2.9,0.1,5.7,2.8,7.7c-6.4,0-12.8,0-19.5,0
		c0.6-0.6,1-0.9,1.4-1.3c1.4-1.5,1.7-3.3,1.7-5.2c0-7.3,0-14.6,0-21.8c0-9.7,0-19.4,0-29.1c0-2.7-0.4-5.2-2.8-6.9
		c0.7-0.6,18-0.7,19.4-0.1C563.5,22.9,563.3,25.5,563.3,28.3z M884.2,28.3c0,16.5,0,33,0,49.4c0,2.9,0.1,5.7,2.8,7.7
		c-6.4,0-12.8,0-19.5,0c0.6-0.5,1-0.8,1.3-1.2c1.4-1.5,1.7-3.4,1.7-5.3c0-15.4,0-30.9,0-46.3c0-1.4,0-2.8,0-4.2
		c0.1-2.8-0.2-5.5-2.9-7.3c0.8-0.6,18.2-0.7,19.5-0.1C884.5,22.9,884.2,25.5,884.2,28.3z"/>
	<g>
		<path class="st1" d="M385.3,48c-1.2-5-4.3-12.1-11.7-21.7c-3.6-4.6-4.8-6.1-5.2-6.6c-0.1-0.1-0.1-0.2-0.2-0.2c0,0,0,0,0,0h0
			c-2.5-3.1-5.4-5.6-8.8-7.7c-4.4-2.7-9.2-4.7-14.1-6.1c-3.7-1.1-7.4-2.1-11.2-2.8c-3.7-0.7-7.5-1.2-11.3-1.6
			C316.8,0.8,310.8,0,304.9,0c-15.8,0-31.6,0.2-47.5,0.4c-2,0-3.9,0.1-5.9,0.2C241,1,230.6,1.4,220.1,1.8
			c-10.5,0.4-21.1,0.7-31.6,1.1c-4.2,0.2-8.5,0.3-12.7,0.5c-10,0.4-20.1,0.8-30.1,1.2c-10.7,0.4-21.4,0.8-32.1,1.3
			C105.8,6.2,98,6.5,90.3,6.8c-12.5,0.5-25,1-37.5,1.5C35.6,9,18.4,9.7,1.2,10.3c-0.4,0-0.8,0.2-1.2,0.3c0,0.1,0,0.2,0,0.4
			c2.8,0.8,5.6,1.7,8.4,2.5c4.3,1.2,8.7,2.4,13,3.6c4.1,1.1,8.2,2.1,12.3,3c3.9,0.9,7.9,1.8,11.8,2.6c3.4,0.7,6.9,1.4,10.3,2.1
			c2.8,0.6,5.5,1.1,8.3,1.6c3.2,0.6,6.3,1.2,9.5,1.7c3.6,0.6,7.2,1.1,10.8,1.6c3.1,0.4,6.2,0.9,9.3,1.2c3.6,0.4,7.2,0.7,10.8,1.1
			c4.9,0.5,9.9,0.9,14.8,1.3c4.5,0.3,9,0.6,13.5,0.8c8.8,0.4,17.6,0.8,26.4,0.9c14.8,0.3,29.5,0.4,44.3,0.5c15,0.1,30,0,45-0.2
			c17.2-0.1,34.3-0.4,51.5-0.5c11.4-0.1,22.9-0.2,34.3-0.2c6.6,0,13.2,0.4,19.8,0.7c1.2,0,2.5,0.3,3.7,0.5
			C357.8,36,380.1,38.2,385.3,48z"/>
		<path class="st2" d="M385.3,48c-5.2-9.8-27.5-12.1-27.5-12.1c0.1,0.1,0.1,0.2,0.2,0.3c-0.2,0.1-0.4,0.2-0.6,0.3
			c-4.2,3.8-8.9,6.8-13.8,9.5c-13.2,7.3-27.3,12.5-41.5,17.5c-8.7,3.1-17.6,5.9-26.4,8.7c-7.1,2.3-14.3,4.4-21.4,6.6
			c-1.1,0.3-2.2,0.7-3.3,1.1c0,0.1,0,0.2,0,0.3c0.5,0.2,1,0.5,1.6,0.6c3.6,1,7.3,2.1,10.9,3.1c4.5,1.2,9.1,2.5,13.6,3.6
			c4.3,1.1,8.6,2.1,12.9,3c5.7,1.2,11.5,2.5,17.2,3.6c4.5,0.9,9.1,1.6,13.7,2.3c0.4,0.1,0.9,0.1,1.3-0.1c3-1.1,6-2.2,9-3.4
			c9.2-3.7,18-8.1,26.8-12.7c6.5-3.4,12.9-6.8,18.6-11.5c3.6-2.9,6.6-6.3,8.2-10.7c0.1-0.4,0.3-0.7,0.5-1.1c0.1-0.3,0.3-0.6,0.4-0.9
			C385.9,55.1,386.3,52.4,385.3,48z"/>
	</g>
	<g>
		<path class="st0" d="M456.3,149h-23.8v22.1h26.6v6.6h-34.5v-61.3h33.1v6.6h-25.2v19.4h23.8V149z"/>
		<path class="st0" d="M472.8,133.7l6.3,9.5c1.6,2.5,3,4.7,4.5,7.2h0.3c1.5-2.6,2.9-4.9,4.4-7.3l6.2-9.4h8.6L488,155l15.5,22.8h-9.1
			l-6.5-9.9c-1.7-2.5-3.2-5-4.7-7.6H483c-1.5,2.6-3,5-4.6,7.6l-6.4,9.9h-8.8l15.7-22.5l-14.9-21.6H472.8z"/>
		<path class="st0" d="M514.3,157.2c0.2,10.8,7.1,15.3,15.1,15.3c5.7,0,9.2-1,12.2-2.3l1.4,5.7c-2.8,1.3-7.6,2.7-14.7,2.7
			c-13.6,0-21.7-8.9-21.7-22.2c0-13.3,7.8-23.8,20.7-23.8c14.4,0,18.2,12.6,18.2,20.7c0,1.6-0.2,2.9-0.3,3.7H514.3z M537.8,151.5
			c0.1-5.1-2.1-13-11.1-13c-8.1,0-11.6,7.5-12.3,13H537.8z"/>
		<path class="st0" d="M586.8,176.1c-2.1,1.1-6.7,2.5-12.6,2.5c-13.3,0-21.9-9-21.9-22.5c0-13.6,9.3-23.4,23.7-23.4
			c4.7,0,8.9,1.2,11.1,2.3l-1.8,6.2c-1.9-1.1-4.9-2.1-9.3-2.1c-10.1,0-15.6,7.5-15.6,16.7c0,10.2,6.6,16.5,15.3,16.5
			c4.6,0,7.6-1.2,9.8-2.2L586.8,176.1z"/>
		<path class="st0" d="M633.1,165.8c0,4.6,0.1,8.6,0.4,12h-7.1l-0.5-7.2h-0.2c-2.1,3.5-6.7,8.2-14.6,8.2c-6.9,0-15.2-3.8-15.2-19.3
			v-25.8h8v24.4c0,8.4,2.5,14,9.8,14c5.4,0,9.1-3.7,10.6-7.3c0.5-1.2,0.7-2.6,0.7-4.1v-27h8V165.8z"/>
		<path class="st0" d="M656,121.1v12.6h11.5v6.1H656v23.8c0,5.5,1.5,8.6,6,8.6c2.1,0,3.6-0.3,4.6-0.5l0.4,6c-1.5,0.6-4,1.1-7.1,1.1
			c-3.7,0-6.7-1.2-8.6-3.4c-2.3-2.4-3.1-6.3-3.1-11.5v-24h-6.8v-6.1h6.8v-10.6L656,121.1z"/>
		<path class="st0" d="M685.4,121.4c0.1,2.7-1.9,4.9-5.1,4.9c-2.8,0-4.8-2.2-4.8-4.9c0-2.8,2.1-5,5-5
			C683.5,116.4,685.4,118.5,685.4,121.4z M676.5,177.8v-44h8v44H676.5z"/>
		<path class="st0" d="M700.9,133.7l8.6,24.8c1.5,4,2.6,7.6,3.5,11.3h0.3c1-3.6,2.3-7.3,3.7-11.3l8.6-24.8h8.4l-17.3,44h-7.6
			l-16.7-44H700.9z"/>
		<path class="st0" d="M745.1,157.2c0.2,10.8,7.1,15.3,15.1,15.3c5.7,0,9.2-1,12.2-2.3l1.4,5.7c-2.8,1.3-7.6,2.7-14.7,2.7
			c-13.6,0-21.7-8.9-21.7-22.2c0-13.3,7.8-23.8,20.7-23.8c14.4,0,18.2,12.6,18.2,20.7c0,1.6-0.2,2.9-0.3,3.7H745.1z M768.6,151.5
			c0.1-5.1-2.1-13-11.1-13c-8.1,0-11.6,7.5-12.3,13H768.6z"/>
		<path class="st0" d="M848.7,175.8c-2.9,1.5-8.7,2.9-16.2,2.9c-17.3,0-30.3-10.9-30.3-31c0-19.2,13-32.2,32-32.2
			c7.6,0,12.5,1.6,14.6,2.7l-1.9,6.5c-3-1.5-7.3-2.5-12.4-2.5c-14.4,0-23.9,9.2-23.9,25.3c0,15,8.6,24.7,23.6,24.7
			c4.8,0,9.7-1,12.9-2.5L848.7,175.8z"/>
		<path class="st0" d="M858.3,113.2h8v64.6h-8V113.2z"/>
		<path class="st0" d="M916.6,165.8c0,4.6,0.1,8.6,0.4,12h-7.1l-0.5-7.2h-0.2c-2.1,3.5-6.7,8.2-14.6,8.2c-6.9,0-15.2-3.8-15.2-19.3
			v-25.8h8v24.4c0,8.4,2.5,14,9.8,14c5.4,0,9.1-3.7,10.6-7.3c0.5-1.2,0.7-2.6,0.7-4.1v-27h8V165.8z"/>
		<path class="st0" d="M929.6,177.8c0.2-3,0.4-7.5,0.4-11.4v-53.2h7.9v27.7h0.2c2.8-4.9,7.9-8.1,15-8.1c10.9,0,18.7,9.1,18.6,22.5
			c0,15.7-9.9,23.6-19.7,23.6c-6.4,0-11.5-2.5-14.7-8.3h-0.3l-0.4,7.3H929.6z M937.9,160.1c0,1,0.2,2,0.4,2.9
			c1.5,5.6,6.2,9.4,12,9.4c8.4,0,13.4-6.8,13.4-16.9c0-8.8-4.5-16.4-13.1-16.4c-5.5,0-10.6,3.7-12.2,9.8c-0.2,0.9-0.5,2-0.5,3.3
			V160.1z"/>
	</g>
</g>
</svg>
