<svg width="26" height="28" viewBox="0 0 26 28" fill="none" xmlns="http://www.w3.org/2000/svg">
<path d="M18.0007 26.5C18.0007 26.7652 17.8953 27.0196 17.7078 27.2071C17.5202 27.3946 17.2659 27.5 17.0007 27.5H9.00068C8.73546 27.5 8.4811 27.3946 8.29357 27.2071C8.10603 27.0196 8.00068 26.7652 8.00068 26.5C8.00068 26.2348 8.10603 25.9804 8.29357 25.7929C8.4811 25.6054 8.73546 25.5 9.00068 25.5H17.0007C17.2659 25.5 17.5202 25.6054 17.7078 25.7929C17.8953 25.9804 18.0007 26.2348 18.0007 26.5ZM25.4244 6.04001C24.3005 3.84332 22.6129 1.98487 20.5344 0.655006C20.4234 0.584066 20.2994 0.535776 20.1696 0.512911C20.0398 0.490045 19.9068 0.493056 19.7782 0.521769C19.6496 0.550482 19.5279 0.604332 19.4202 0.680222C19.3125 0.756113 19.2208 0.852548 19.1505 0.963984C19.0801 1.07542 19.0325 1.19966 19.0103 1.32956C18.9882 1.45946 18.9919 1.59246 19.0213 1.72091C19.0507 1.84937 19.1052 1.97074 19.1817 2.07806C19.2582 2.18538 19.3551 2.27652 19.4669 2.34626C21.2502 3.48063 22.6949 5.07437 23.6494 6.96001C23.7756 7.18792 23.9857 7.35763 24.235 7.43301C24.4844 7.50839 24.7533 7.4835 24.9845 7.36362C25.2158 7.24375 25.3912 7.03836 25.4733 6.79116C25.5555 6.54396 25.5379 6.27446 25.4244 6.04001ZM1.46442 7.50001C1.64763 7.49993 1.82729 7.44953 1.9838 7.3543C2.14031 7.25907 2.26765 7.12268 2.35193 6.96001C3.30643 5.07437 4.7512 3.48063 6.53442 2.34626C6.64624 2.27652 6.74317 2.18538 6.81964 2.07806C6.89612 1.97074 6.95062 1.84937 6.98003 1.72091C7.00944 1.59246 7.01317 1.45946 6.99101 1.32956C6.96885 1.19966 6.92123 1.07542 6.85089 0.963984C6.78055 0.852548 6.68888 0.756113 6.58115 0.680222C6.47342 0.604332 6.35175 0.550482 6.22314 0.521769C6.09453 0.493056 5.96151 0.490045 5.83174 0.512911C5.70196 0.535776 5.57798 0.584066 5.46693 0.655006C3.38845 1.98487 1.70083 3.84332 0.576925 6.04001C0.497972 6.1924 0.459574 6.36256 0.465425 6.5341C0.471276 6.70563 0.521181 6.87278 0.610335 7.01944C0.699489 7.16611 0.824892 7.28736 0.974476 7.37152C1.12406 7.45569 1.29279 7.49993 1.46442 7.50001ZM24.7269 20.4925C24.9041 20.7963 24.998 21.1415 24.9992 21.4931C25.0004 21.8448 24.9089 22.1906 24.7338 22.4956C24.5587 22.8006 24.3063 23.0541 24.002 23.2304C23.6978 23.4068 23.3524 23.4998 23.0007 23.5H3.00067C2.6492 23.4993 2.30412 23.406 2.00018 23.2295C1.69625 23.053 1.4442 22.7995 1.26942 22.4945C1.09465 22.1896 1.00332 21.844 1.00464 21.4925C1.00595 21.141 1.09987 20.7961 1.27692 20.4925C2.40317 18.5488 3.00067 15.785 3.00067 12.5C3.00067 9.84784 4.05424 7.3043 5.92961 5.42894C7.80497 3.55357 10.3485 2.50001 13.0007 2.50001C15.6528 2.50001 18.1964 3.55357 20.0717 5.42894C21.9471 7.3043 23.0007 9.84784 23.0007 12.5C23.0007 15.7838 23.5982 18.5475 24.7269 20.4925ZM23.0007 21.5C21.6707 19.2163 21.0007 16.1888 21.0007 12.5C21.0007 10.3783 20.1578 8.34344 18.6575 6.84315C17.1572 5.34286 15.1224 4.50001 13.0007 4.50001C10.8789 4.50001 8.84411 5.34286 7.34382 6.84315C5.84353 8.34344 5.00068 10.3783 5.00068 12.5C5.00068 16.19 4.32818 19.2175 3.00067 21.5H23.0007Z" fill="#141725"/>
</svg>
