<svg width="20" height="20" viewBox="0 0 20 20" fill="#6A6E85" xmlns="http://www.w3.org/2000/svg">
<path d="M12.4487 16.25L9.99871 14.8083L7.54871 16.25L8.19871 13.4666L6.04037 11.6L8.88204 11.3583L9.99871 8.74996L11.1154 11.3583L13.957 11.6L11.7987 13.4666M16.6654 1.66663H3.33204V3.33329L7.38204 6.36663C5.96905 6.96961 4.80767 8.0421 4.09432 9.40272C3.38097 10.7633 3.15943 12.3286 3.46716 13.8337C3.77489 15.3388 4.59301 16.6915 5.78315 17.6629C6.9733 18.6344 8.46243 19.165 9.99871 19.165C11.535 19.165 13.0241 18.6344 14.2143 17.6629C15.4044 16.6915 16.2225 15.3388 16.5303 13.8337C16.838 12.3286 16.6164 10.7633 15.9031 9.40272C15.1897 8.0421 14.0284 6.96961 12.6154 6.36663L16.6654 3.33329M14.9987 12.5C14.9992 13.4469 14.7307 14.3744 14.2246 15.1747C13.7185 15.975 12.9956 16.6151 12.1399 17.0206C11.2842 17.4261 10.331 17.5803 9.39111 17.4653C8.45123 17.3502 7.56334 16.9706 6.83076 16.3707C6.09817 15.7707 5.55101 14.9751 5.25292 14.0763C4.95484 13.1776 4.91809 12.2127 5.14695 11.2938C5.37581 10.375 5.86087 9.54006 6.5457 8.88613C7.23053 8.2322 8.08697 7.78618 9.01537 7.59996C9.66415 7.46659 10.3333 7.46659 10.982 7.59996C12.1145 7.82711 13.1333 8.4393 13.8656 9.33254C14.5978 10.2258 14.9982 11.345 14.9987 12.5ZM10.5237 5.83329H9.47371L6.14037 3.33329H13.9237L10.5237 5.83329Z"/>
</svg>
