<svg width="30" height="23" viewBox="0 0 30 23" fill="none" xmlns="http://www.w3.org/2000/svg">
<path d="M28.3346 10.2387V19C28.3346 19.7073 28.0537 20.3855 27.5536 20.8856C27.0535 21.3857 26.3752 21.6667 25.668 21.6667H8.33464C7.62739 21.6667 6.94911 21.3857 6.44902 20.8856C5.94892 20.3855 5.66797 19.7073 5.66797 19V17M28.3346 10.2387V8.33335C28.3346 7.62611 28.0537 6.94783 27.5536 6.44774C27.0535 5.94764 26.3752 5.66669 25.668 5.66669H24.3346M28.3346 10.2387H24.3346" stroke="#141725" stroke-width="1.5" stroke-linecap="round" stroke-linejoin="round"/>
<path d="M24.3346 5.66667V14.3333C24.3346 15.0406 24.0537 15.7189 23.5536 16.219C23.0535 16.719 22.3752 17 21.668 17H4.33464C3.62739 17 2.94911 16.719 2.44902 16.219C1.94892 15.7189 1.66797 15.0406 1.66797 14.3333V3.66667C1.66797 2.95942 1.94892 2.28115 2.44902 1.78105C2.94911 1.28095 3.62739 1 4.33464 1H21.668C22.3752 1 23.0535 1.28095 23.5536 1.78105C24.0537 2.28115 24.3346 2.95942 24.3346 3.66667V5.66667ZM24.3346 5.66667H6.33464" stroke="#141725" stroke-width="1.5" stroke-linecap="round" stroke-linejoin="round"/>
</svg>
