<svg width="18" height="18" viewBox="0 0 18 18" fill="none" xmlns="http://www.w3.org/2000/svg">
<path fill-rule="evenodd" clip-rule="evenodd" d="M10.2852 4.96833C9.25089 4.96833 8.47778 5.72085 8.47778 6.72761V10.0996H6.80422V10.7674H8.47778V16.6317H9.58232V10.686H11.7716L11.9161 10.0181H9.58232V6.97195C9.58232 6.78504 9.6308 6.5192 9.85095 6.30492C10.0711 6.09064 10.3442 6.04345 10.5362 6.04345H12.0927V4.96833H10.2852ZM7.07199 6.72761C7.07199 4.96514 8.4745 3.60001 10.2852 3.60001H12.5445C12.7365 3.60001 13.0097 3.6472 13.2298 3.86148C13.45 4.07576 13.4984 4.34161 13.4984 4.52851V6.48326C13.4984 6.67017 13.45 6.93601 13.2298 7.1503C13.0097 7.36458 12.7365 7.41177 12.5445 7.41177H10.9881V8.64978H12.4608C12.8172 8.64978 13.0841 8.83748 13.234 9.05625C13.3699 9.25474 13.4148 9.4768 13.4148 9.65973V9.73097L13.0722 11.315C13.0436 11.5078 12.9439 11.6443 12.8809 11.7151C12.8006 11.8053 12.712 11.8666 12.6447 11.9059C12.5301 11.9728 12.3408 12.0543 12.1261 12.0543H10.9881V18H7.07199V12.1358H6.35236C6.16034 12.1358 5.88722 12.0886 5.66707 11.8743C5.44692 11.66 5.39844 11.3942 5.39844 11.2072V9.65973C5.39844 9.47283 5.44692 9.20698 5.66707 8.9927C5.88722 8.77842 6.16034 8.73123 6.35236 8.73123H7.07199V6.72761Z" fill="#6A6E85"/>
<path fill-rule="evenodd" clip-rule="evenodd" d="M2.53973 2.53973C1.80048 3.27899 1.39483 4.50237 1.39483 6.50922V11.4908C1.39483 13.4976 1.80048 14.721 2.53973 15.4603C3.27899 16.1995 4.50237 16.6052 6.50922 16.6052H11.4908C13.4976 16.6052 14.721 16.1995 15.4603 15.4603C16.1995 14.721 16.6052 13.4976 16.6052 11.4908V6.50922C16.6052 4.50237 16.1995 3.27899 15.4603 2.53973C14.721 1.80048 13.4976 1.39483 11.4908 1.39483H6.50922C4.50237 1.39483 3.27899 1.80048 2.53973 2.53973ZM1.55344 1.55344C2.68226 0.424615 4.36479 0 6.50922 0H11.4908C13.6352 0 15.3177 0.424615 16.4466 1.55344C17.5754 2.68226 18 4.36479 18 6.50922V11.4908C18 13.6352 17.5754 15.3177 16.4466 16.4466C15.3177 17.5754 13.6352 18 11.4908 18H6.50922C4.36479 18 2.68226 17.5754 1.55344 16.4466C0.424615 15.3177 0 13.6352 0 11.4908V6.50922C0 4.36479 0.424615 2.68226 1.55344 1.55344Z" fill="#6A6E85"/>
</svg>
