<svg width="20" height="20" viewBox="0 0 20 20" fill="#6A6E85" xmlns="http://www.w3.org/2000/svg">
<g clip-path="url(#clip0_564_41897)">
<path d="M13.6898 6.02311C13.6232 5.82344 13.4457 5.66805 13.2461 5.64591L11.3378 5.37969L10.4946 3.64893C10.4057 3.44911 10.2283 3.33813 10.0064 3.33813C9.78445 3.33813 9.60707 3.44911 9.51823 3.64878L8.675 5.37953L6.76673 5.64576C6.56706 5.66789 6.38953 5.82329 6.32299 6.02295C6.25643 6.22262 6.32299 6.44459 6.4561 6.59983L7.83179 7.93126L7.49901 9.81743C7.45459 10.0171 7.54343 10.2391 7.72097 10.35C7.8985 10.4831 8.1203 10.4831 8.29785 10.3944L10.0065 9.50694L11.7151 10.3944C11.8038 10.4388 11.8926 10.461 11.9813 10.461C12.0923 10.461 12.2032 10.4166 12.3141 10.35C12.4916 10.2169 12.5803 10.0172 12.536 9.81743L12.2032 7.93126L13.5789 6.59983C13.712 6.44459 13.7565 6.22279 13.6899 6.02311H13.6898ZM11.2045 7.33223C11.0714 7.46535 11.0048 7.64288 11.0491 7.8204L11.2266 8.88544L10.2726 8.37513C10.1839 8.33071 10.095 8.30857 10.0063 8.30857C9.91766 8.30857 9.82881 8.33071 9.74012 8.37513L8.78607 8.88544L8.9636 7.8204C8.98573 7.64286 8.94147 7.46533 8.8082 7.33223L8.0315 6.57784L9.09654 6.42244C9.27407 6.40031 9.42931 6.28933 9.51817 6.1118L10.0063 5.13544L10.4945 6.1118C10.5832 6.2672 10.7386 6.37802 10.9161 6.42244L11.9812 6.57784L11.2045 7.33223Z"/>
<path d="M17.2171 0.0098877H2.79415C2.48351 0.0098877 2.23942 0.253977 2.23942 0.564618C2.23942 1.76276 2.32811 2.91663 2.48351 4.00398C1.92878 4.15938 1.3962 4.44773 0.974725 4.89147C0.353269 5.53504 -0.00163966 6.37815 0.0205099 7.28791C0.0426433 9.08519 1.59602 10.5497 3.43757 10.5497H3.90362C4.21426 10.5497 4.45835 10.7938 4.45835 11.1044C4.45835 11.4151 4.21426 11.6592 3.90362 11.6592C3.59298 11.6592 3.34889 11.9033 3.34889 12.2139C3.34889 12.5246 3.59298 12.7686 3.90362 12.7686C4.56934 12.7686 5.14618 12.3693 5.41241 11.8146C6.27779 12.924 7.25411 13.7229 8.34146 14.1222V16.6518H7.49823C7.29856 16.6518 7.12104 16.7404 7.03218 16.918L5.63422 19.1369C5.52324 19.3144 5.52324 19.5141 5.61209 19.6916C5.70078 19.8692 5.90059 19.9801 6.10025 19.9801H13.8665C14.0661 19.9801 14.2437 19.8914 14.3325 19.7139C14.4435 19.5585 14.4435 19.3367 14.3547 19.1813L13.2452 16.9624C13.1565 16.7849 12.9567 16.6518 12.757 16.6518H11.6476L11.6477 14.1222C12.735 13.7229 13.7336 12.9241 14.5768 11.8146C14.843 12.3693 15.42 12.7687 16.0856 12.7687C16.3962 12.7687 16.6403 12.5246 16.6403 12.2139C16.6403 11.9033 16.3962 11.6592 16.0856 11.6592C15.7749 11.6592 15.5308 11.4151 15.5308 11.1045C15.5308 10.7938 15.7749 10.5497 16.0856 10.5497H16.5516C18.3933 10.5497 19.9466 9.08521 19.9687 7.28792C19.9908 6.37813 19.6359 5.53505 19.0146 4.89149C18.593 4.46985 18.0827 4.15925 17.5058 4.004C17.6612 2.89454 17.7499 1.76293 17.7499 0.564634C17.7719 0.253993 17.5278 0.00990357 17.2172 0.00990357L17.2171 0.0098877ZM3.90361 9.4403H3.43756C2.195 9.4403 1.15207 8.46393 1.12996 7.2658C1.12996 6.66665 1.35192 6.08977 1.77337 5.66817C2.01746 5.40195 2.3281 5.22443 2.66086 5.11344C2.9715 6.71107 3.41525 8.17559 4.0144 9.44034H3.90358L3.90361 9.4403ZM12.4465 17.7612L13.0012 18.8707H7.12105L7.80887 17.7612H12.4465ZM9.45083 16.6518V14.3885C9.62837 14.4106 9.82803 14.4329 10.0056 14.4329C10.1831 14.4329 10.3828 14.4107 10.5603 14.3885V16.6518H9.45083ZM10.0056 13.3234C6.4331 13.3234 3.50413 7.88705 3.3488 1.11935H16.6623C16.5069 7.88705 13.578 13.3234 10.0056 13.3234ZM18.2378 5.66813C18.6592 6.08977 18.8812 6.66661 18.8812 7.26576C18.859 8.46389 17.8161 9.44026 16.5736 9.44026H16.1075H16.0188C16.5957 8.1754 17.0617 6.71103 17.3724 5.11336C17.683 5.22434 17.9937 5.40172 18.2377 5.66809L18.2378 5.66813Z"/>
</g>
<defs>
<clipPath id="clip0_564_41897">
<rect width="20" height="20" fill="white"/>
</clipPath>
</defs>
</svg>
