<svg width="20" height="20" viewBox="0 0 20 20" fill="none" xmlns="http://www.w3.org/2000/svg">
<g id="iconoir:eye-alt">
<g id="Group">
<path id="Vector" d="M2.5 10.8333C5.5 4.16667 14.5 4.16667 17.5 10.8333" stroke="#6A6E85" stroke-width="1.5" stroke-linecap="round" stroke-linejoin="round"/>
<path id="Vector_2" d="M10 14.1667C9.6717 14.1667 9.34661 14.102 9.04329 13.9764C8.73998 13.8507 8.46438 13.6666 8.23223 13.4344C8.00009 13.2023 7.81594 12.9267 7.6903 12.6234C7.56466 12.3201 7.5 11.995 7.5 11.6667C7.5 11.3384 7.56466 11.0133 7.6903 10.71C7.81594 10.4066 8.00009 10.131 8.23223 9.8989C8.46438 9.66675 8.73998 9.48261 9.04329 9.35697C9.34661 9.23133 9.6717 9.16667 10 9.16667C10.663 9.16667 11.2989 9.43006 11.7678 9.8989C12.2366 10.3677 12.5 11.0036 12.5 11.6667C12.5 12.3297 12.2366 12.9656 11.7678 13.4344C11.2989 13.9033 10.663 14.1667 10 14.1667Z" stroke="#6A6E85" stroke-width="1.5" stroke-linecap="round" stroke-linejoin="round"/>
</g>
</g>
</svg>
