<svg width="32" height="32" viewBox="0 0 32 32" fill="none" xmlns="http://www.w3.org/2000/svg">
<g clip-path="url(#clip0_476_41881)">
<mask id="mask0_476_41881" style="mask-type:luminance" maskUnits="userSpaceOnUse" x="0" y="0" width="32" height="32">
<path d="M0 0H31.8368V20.043C31.9159 20.1499 31.9702 20.2697 32 20.4245V21.0455C31.9702 21.201 31.9159 21.3364 31.8368 21.4505V32H0V0Z" fill="url(#paint0_radial_476_41881)"/>
</mask>
<g mask="url(#mask0_476_41881)">
<path fill-rule="evenodd" clip-rule="evenodd" d="M0 32H32V0H0V32Z" fill="#205AB3"/>
</g>
<path fill-rule="evenodd" clip-rule="evenodd" d="M2.86713 13.8697L2.25475 12.3829L1.64612 13.8697H2.86713ZM16.3414 13.2797C16.2204 13.3485 16.0749 13.356 15.8996 13.356H14.8134V12.5256H15.914C16.0711 12.5256 16.2342 12.5315 16.3403 12.5891C16.4544 12.6461 16.5269 12.7617 16.5269 12.9206C16.5269 13.0852 16.4565 13.2136 16.3414 13.2797ZM24.0846 13.8697L23.4686 12.3829L22.8563 13.8697H24.0846ZM9.65063 15.4822H8.7345L8.72913 12.5582L7.43475 15.4822H6.65025L5.349 12.5517V15.4822H3.531L3.18887 14.6489H1.3275L0.982125 15.4822H0.010625L1.60888 11.7439H2.9385L4.45787 15.2856V11.7439H5.91862L7.08675 14.2821L8.16212 11.7439H9.65063V15.4822ZM13.3006 15.4822H10.315V11.7439H13.3004V12.5256H11.211V13.1966H13.2494V13.9651L11.211 13.9619V14.7085H13.3005L13.3006 15.4822ZM17.5111 12.7537C17.5111 13.3447 17.1136 13.6571 16.8834 13.7492C17.0784 13.8244 17.2441 13.9534 17.3219 14.0652C17.4481 14.2475 17.4732 14.4181 17.4732 14.7469V15.4822H16.5716L16.5689 15.0122C16.5689 14.79 16.5901 14.466 16.4239 14.287C16.2934 14.1532 16.0968 14.1255 15.7739 14.1255H14.8135V15.4822H13.9204V11.7439H15.9779C16.432 11.7439 16.7699 11.7589 17.0597 11.9251C17.3428 12.0902 17.5111 12.3347 17.5111 12.7537ZM18.0308 15.4822H18.9425V11.7434H18.0308V15.4822ZM29.5209 15.4822H28.2531L26.5585 12.6791L26.5616 15.4822H24.7412L24.3926 14.6489H22.5339L22.1998 15.4822H21.1535C20.7176 15.4822 20.1666 15.3854 19.8581 15.0704C19.5405 14.7511 19.38 14.3232 19.38 13.6416C19.38 13.0874 19.4775 12.5811 19.8612 12.1809C20.1506 11.8825 20.602 11.7439 21.2186 11.7439H22.0824V12.5444H21.2377C20.9111 12.5444 20.7253 12.5944 20.5471 12.7676C20.3969 12.9254 20.2903 13.2226 20.2903 13.6155C20.2903 14.0167 20.3703 14.3024 20.5386 14.4937C20.6729 14.6402 20.9239 14.6845 21.16 14.6845H21.5619L22.8211 11.7439H24.1599L25.6737 15.2804V11.7437H27.0365L28.607 14.3471V11.7437H29.5209V15.4822ZM0 16.2187H1.52737L1.87162 15.3854H2.64225L2.98537 16.2187H5.991V15.5825L6.25975 16.2209H7.81725L8.08488 15.5745V16.2187H15.5531L15.5494 14.855H15.6939C15.7956 14.8572 15.826 14.8689 15.826 15.0367V16.2187H19.686V15.9017C19.9978 16.069 20.4832 16.2187 21.1185 16.2187H22.7444L23.0912 15.3854H23.863L24.2068 16.2187H27.3349V15.4285L27.8097 16.2187H30.315V11.0031H27.8347V11.6207L27.4885 11.0032H24.9387V11.6207L24.62 11.0032H21.1787C20.6021 11.0032 20.0942 11.0825 19.6861 11.3074V11.0031H17.3141V11.3074C17.0504 11.0761 16.6959 11.0031 16.3031 11.0031H7.62663L7.042 12.3519L6.44725 11.0031H3.715V11.6207L3.41175 11.0032H1.08175L0 13.4806V16.2186V16.2187ZM31.8381 18.9775H30.2064C30.0439 18.9775 29.9356 18.9839 29.8482 19.0441C29.7545 19.1037 29.715 19.1971 29.715 19.3159C29.715 19.4545 29.795 19.5504 29.9137 19.592C30.0034 19.625 30.1073 19.6335 30.2596 19.6357L30.7383 19.6479C31.2264 19.6617 31.5552 19.7449 31.755 19.9479C31.7886 19.9779 31.8125 20.0135 31.8381 20.0422V18.9775ZM31.8381 21.4432C31.6186 21.762 31.196 21.9224 30.6226 21.9224H28.8959V21.1187H30.6173C30.7851 21.1187 30.9056 21.0959 30.9797 21.026C31.0397 20.9711 31.0858 20.8864 31.0858 20.7835C31.0858 20.6732 31.0399 20.5859 30.9775 20.5357C30.9078 20.4766 30.8155 20.4526 30.661 20.4505C29.8222 20.4244 28.775 20.4766 28.775 19.294C28.775 18.7521 29.1209 18.1814 30.0556 18.1814H31.8381V17.4374H30.1825C29.6826 17.4374 29.3207 17.5556 29.0624 17.7444V17.4374H26.6146C26.2271 17.4374 25.7684 17.5349 25.5478 17.7444L25.551 17.4374H21.1805V17.7444C20.8325 17.4934 20.2474 17.4374 19.973 17.4374H17.0946V17.7444C16.818 17.4769 16.2095 17.4374 15.8348 17.4374H12.6085L11.8715 18.2389L11.1803 17.4374H6.361V22.6561H11.0901L11.8511 21.8451L12.5679 22.6562L15.4786 22.6584V21.431H15.767C16.1513 21.4364 16.6106 21.4225 17.0124 21.2487V22.6562H19.4154V21.2957H19.531C19.6791 21.2957 19.694 21.3042 19.694 21.4507V22.6562H26.9961C27.4565 22.6562 27.9404 22.5375 28.2111 22.3242V22.6562H30.5278C31.01 22.6562 31.4785 22.5896 31.8381 22.4175V21.4432ZM28.2714 19.948C28.4461 20.1292 28.5389 20.3577 28.5389 20.7409C28.5389 21.5477 28.0352 21.9224 27.1357 21.9224H25.3925V21.1187H27.1278C27.2994 21.1187 27.4181 21.0959 27.496 21.026C27.5289 20.9948 27.5551 20.9572 27.5728 20.9155C27.5905 20.8738 27.5994 20.8288 27.5989 20.7835C27.5989 20.6732 27.5509 20.5859 27.4896 20.5357C27.4209 20.4766 27.3275 20.4526 27.1725 20.4505C26.3343 20.4244 25.2903 20.4766 25.2903 19.294C25.2903 18.7521 25.6308 18.1814 26.5644 18.1814H28.3587V18.9775H26.7216C26.557 18.9775 26.4499 18.9839 26.3604 19.0441C26.2634 19.1037 26.2271 19.1971 26.2271 19.3159C26.2271 19.4545 26.3102 19.5504 26.4237 19.592C26.5154 19.625 26.6145 19.6335 26.7685 19.6357L27.2502 19.6479C27.7385 19.6617 28.0684 19.7449 28.2714 19.9479V19.948ZM20.2056 19.7187C20.0884 19.7875 19.9386 19.7945 19.7665 19.7945H18.6799V18.9567H19.7809C19.9386 18.9567 20.1006 18.9599 20.2056 19.0212C20.3219 19.0841 20.3911 19.1992 20.3911 19.3606C20.3911 19.519 20.3219 19.6479 20.2056 19.7187ZM20.746 20.184C20.9447 20.256 21.1073 20.3881 21.1835 20.4974C21.3094 20.6807 21.3301 20.8511 21.3311 21.18V21.9225H20.4359V21.455C20.4359 21.228 20.4578 20.896 20.2904 20.7234C20.1614 20.5859 19.9616 20.5555 19.6365 20.5555H18.6799V21.9224H17.783V18.1814H19.8449C20.2989 18.1814 20.6287 18.2 20.9214 18.3582C21.2033 18.5272 21.3781 18.7644 21.3781 19.1901C21.3781 19.7844 20.9816 20.0891 20.746 20.184ZM21.8752 18.1814H24.8596V18.9567H22.7659V19.6335H24.8074V20.3972H22.7658V21.1406L24.8596 21.1449V21.9224H21.8752V18.1814ZM15.8469 19.9064H14.6894V18.9567H15.8565C16.179 18.9567 16.4023 19.0851 16.4023 19.415C16.4023 19.7375 16.1896 19.9064 15.8469 19.9064ZM13.7994 21.5829L12.43 20.0594L13.7996 18.5831V21.5829H13.7994ZM10.2566 21.1406H8.05937V20.3972H10.0212V19.6335H8.05937V18.9567H10.2998L11.2756 20.0444L10.2566 21.1406ZM17.361 19.415C17.361 20.4505 16.5883 20.6669 15.8048 20.6669H14.6894V21.9224H12.9548L11.8538 20.6849L10.7101 21.9224H7.171V18.1814H10.765L11.8645 19.4065L13.0006 18.1814H15.8565C16.5664 18.1814 17.361 18.3767 17.361 19.415Z" fill="white"/>
<path fill-rule="evenodd" clip-rule="evenodd" d="M17.5126 12.7543C17.5126 13.3459 17.1156 13.6571 16.8859 13.7493C17.0809 13.8244 17.2468 13.9544 17.3245 14.0653C17.4508 14.2486 17.4754 14.4181 17.4754 14.748V15.4823H16.5741L16.5704 15.0128C16.5704 14.79 16.5929 14.466 16.426 14.287C16.2949 14.1533 16.0994 14.1255 15.7753 14.1255H14.816V15.4823H13.9219V11.7439H15.9805C16.4335 11.7439 16.7717 11.7589 17.0612 11.9251C17.3452 12.0903 17.5126 12.3349 17.5126 12.7543Z" fill="#2F9BCA"/>
<path fill-rule="evenodd" clip-rule="evenodd" d="M13.3029 15.4822H10.3164V11.7433H13.3029V12.5256H11.2123V13.1966H13.2507V13.9651L11.2123 13.963V14.7096H13.3029" fill="#2EA3D0"/>
<path fill-rule="evenodd" clip-rule="evenodd" d="M9.65109 15.4822H8.73497L8.72959 12.5582L7.43622 15.4822H6.65184L5.34934 12.5528V15.4822H3.53209L3.18947 14.6493H1.32797L0.983719 15.4822H0.0117188L1.60984 11.7433H2.93897L4.45834 15.2862V11.7433H5.91959L7.08822 14.2832L8.16259 11.7433H9.65109" fill="#55B2D8"/>
<path fill-rule="evenodd" clip-rule="evenodd" d="M16.3409 13.2797C16.2193 13.3496 16.0739 13.356 15.8997 13.356H14.8129V12.5256H15.9134C16.0707 12.5256 16.2332 12.5315 16.3387 12.5901C16.4538 12.6461 16.5258 12.7617 16.5258 12.9211C16.5258 13.0852 16.4559 13.2147 16.3408 13.2799M2.86603 13.8697L2.25316 12.3829L1.64453 13.8697" fill="white"/>
</g>
<defs>
<radialGradient id="paint0_radial_476_41881" cx="0" cy="0" r="1" gradientUnits="userSpaceOnUse" gradientTransform="translate(531.488 555.904) scale(3792.64)">
<stop stop-color="#88CDE7"/>
<stop offset="1" stop-color="#2274AD"/>
</radialGradient>
<clipPath id="clip0_476_41881">
<rect width="32" height="32" fill="white"/>
</clipPath>
</defs>
</svg>
