<svg width="20" height="21" viewBox="0 0 20 21" fill="none" stroke="#6A6E85" xmlns="http://www.w3.org/2000/svg">
<g id="majesticons:logout-half-circle-line">
<path id="Vector" d="M15.8334 10.5L12.5001 7.16667M15.8334 10.5L12.5001 13.8333M15.8334 10.5H7.50008M11.6667 18C10.6818 18 9.70656 17.806 8.79662 17.4291C7.88668 17.0522 7.05989 16.4997 6.36345 15.8033C5.66701 15.1069 5.11456 14.2801 4.73765 13.3701C4.36074 12.4602 4.16675 11.4849 4.16675 10.5C4.16675 9.51509 4.36074 8.53982 4.73765 7.62987C5.11456 6.71993 5.66701 5.89314 6.36345 5.1967C7.05989 4.50026 7.88668 3.94781 8.79662 3.5709C9.70656 3.19399 10.6818 3 11.6667 3" stroke-width="2" stroke-linecap="round" stroke-linejoin="round"/>
</g>
</svg>
