<svg width="122" height="37" viewBox="0 0 122 37" fill="none" xmlns="http://www.w3.org/2000/svg">
<g clip-path="url(#clip0_564_41865)">
<path d="M9.83682 24.5484C9.96039 24.7337 10.0222 24.9139 10.0222 25.089C10.0222 25.3259 9.92435 25.5215 9.72869 25.676C9.54333 25.8304 9.32193 25.9077 9.06449 25.9077C8.89973 25.9077 8.74012 25.8716 8.58565 25.7995C8.44149 25.7172 8.31791 25.5987 8.21494 25.4443L6.16055 22.3241C5.9546 21.9946 5.7332 21.7629 5.49636 21.629C5.26981 21.4951 4.97118 21.4282 4.60046 21.4282H3.0867V24.8882C3.0867 25.1971 2.99917 25.4443 2.82411 25.6296C2.64905 25.8047 2.41221 25.8922 2.11357 25.8922C1.81494 25.8922 1.57295 25.8047 1.38759 25.6296C1.21253 25.4443 1.125 25.1971 1.125 24.8882V15.852C1.125 15.5534 1.20738 15.3217 1.37214 15.1569C1.5472 14.9922 1.78405 14.9098 2.08268 14.9098H5.9443C7.18002 14.9098 8.11711 15.1878 8.75556 15.7439C9.40432 16.2897 9.72869 17.0826 9.72869 18.1226C9.72869 18.967 9.4867 19.6621 9.00271 20.2079C8.52902 20.7434 7.85452 21.0884 6.97922 21.2428C7.27785 21.3149 7.54044 21.4436 7.76699 21.629C7.99354 21.8144 8.21494 22.0718 8.43119 22.4013L9.83682 24.5484ZM5.66627 19.899C6.418 19.899 6.96892 19.76 7.31904 19.4819C7.66916 19.1936 7.84422 18.7559 7.84422 18.169C7.84422 17.5717 7.66916 17.1392 7.31904 16.8715C6.96892 16.5934 6.418 16.4544 5.66627 16.4544H3.07126V19.899H5.66627Z" fill="black"/>
<path d="M13.4407 25.7995C13.142 25.7995 12.9052 25.7172 12.7301 25.5524C12.5654 25.3876 12.483 25.1559 12.483 24.8573V15.852C12.483 15.5534 12.5654 15.3217 12.7301 15.1569C12.9052 14.9922 13.142 14.9098 13.4407 14.9098H19.0169C19.3155 14.9098 19.5472 14.9767 19.7119 15.1106C19.8767 15.2444 19.9591 15.435 19.9591 15.6821C19.9591 15.9395 19.8767 16.1403 19.7119 16.2845C19.5472 16.4184 19.3155 16.4853 19.0169 16.4853H14.4293V19.4819H18.7079C19.0066 19.4819 19.2383 19.5489 19.403 19.6827C19.5678 19.8166 19.6502 20.0123 19.6502 20.2697C19.6502 20.5168 19.5678 20.7074 19.403 20.8412C19.2383 20.9751 19.0066 21.042 18.7079 21.042H14.4293V24.224H19.0169C19.3155 24.224 19.5472 24.2961 19.7119 24.4403C19.8767 24.5741 19.9591 24.7698 19.9591 25.0272C19.9591 25.2744 19.8767 25.4649 19.7119 25.5987C19.5472 25.7326 19.3155 25.7995 19.0169 25.7995H13.4407Z" fill="black"/>
<path d="M35.8515 15.435C35.9236 15.229 36.0368 15.0745 36.1913 14.9716C36.3561 14.8686 36.5363 14.8171 36.7319 14.8171C36.9791 14.8171 37.1902 14.8943 37.3652 15.0488C37.5506 15.2033 37.6433 15.4092 37.6433 15.6666C37.6433 15.7593 37.6175 15.8932 37.566 16.0683L34.245 25.2589C34.1627 25.4649 34.0236 25.6245 33.828 25.7378C33.6426 25.851 33.4367 25.9077 33.2101 25.9077C32.9836 25.9077 32.7725 25.851 32.5768 25.7378C32.3812 25.6245 32.2473 25.4649 32.1752 25.2589L29.6111 17.9836L27.0006 25.2589C26.9183 25.4649 26.7792 25.6245 26.5836 25.7378C26.3982 25.851 26.1923 25.9077 25.9657 25.9077C25.7392 25.9077 25.5281 25.851 25.3324 25.7378C25.1471 25.6245 25.0183 25.4649 24.9463 25.2589L21.6253 16.0683C21.5738 15.9138 21.548 15.7799 21.548 15.6666C21.548 15.4092 21.6407 15.2033 21.8261 15.0488C22.0217 14.8943 22.2483 14.8171 22.5057 14.8171C22.7117 14.8171 22.897 14.8686 23.0618 14.9716C23.2265 15.0745 23.345 15.229 23.4171 15.435L26.043 22.9883L28.7461 15.4813C28.8182 15.2753 28.9366 15.1157 29.1014 15.0024C29.2661 14.8789 29.4463 14.8171 29.642 14.8171C29.8376 14.8171 30.0179 14.8789 30.1826 15.0024C30.3577 15.1157 30.4812 15.2805 30.5533 15.4967L33.1792 23.081L35.8515 15.435Z" fill="black"/>
<path d="M48.7951 24.6102C48.8569 24.744 48.8878 24.8779 48.8878 25.0118C48.8878 25.2486 48.79 25.4494 48.5943 25.6142C48.409 25.7789 48.1927 25.8613 47.9456 25.8613C47.7808 25.8613 47.6264 25.8201 47.4822 25.7378C47.338 25.6451 47.2248 25.5061 47.1424 25.3207L46.2156 23.2509H40.7784L39.8516 25.3207C39.7692 25.5061 39.656 25.6451 39.5118 25.7378C39.3676 25.8201 39.208 25.8613 39.033 25.8613C38.7961 25.8613 38.5799 25.7789 38.3842 25.6142C38.1886 25.4494 38.0907 25.2486 38.0907 25.0118C38.0907 24.8779 38.1216 24.744 38.1834 24.6102L42.4466 15.4504C42.5393 15.2444 42.6783 15.09 42.8637 14.987C43.0594 14.8737 43.2653 14.8171 43.4816 14.8171C43.6978 14.8171 43.8986 14.8737 44.084 14.987C44.2796 15.09 44.4238 15.2444 44.5165 15.4504L48.7951 24.6102ZM41.4581 21.7062H45.5359L43.497 17.1186L41.4581 21.7062Z" fill="black"/>
<path d="M59.7187 24.5484C59.8423 24.7337 59.9041 24.9139 59.9041 25.089C59.9041 25.3259 59.8062 25.5215 59.6106 25.676C59.4252 25.8304 59.2038 25.9077 58.9464 25.9077C58.7816 25.9077 58.622 25.8716 58.4675 25.7995C58.3234 25.7172 58.1998 25.5987 58.0968 25.4443L56.0424 22.3241C55.8365 21.9946 55.6151 21.7629 55.3783 21.629C55.1517 21.4951 54.8531 21.4282 54.4824 21.4282H52.9686V24.8882C52.9686 25.1971 52.8811 25.4443 52.706 25.6296C52.5309 25.8047 52.2941 25.8922 51.9955 25.8922C51.6968 25.8922 51.4548 25.8047 51.2695 25.6296C51.0944 25.4443 51.0069 25.1971 51.0069 24.8882V15.852C51.0069 15.5534 51.0893 15.3217 51.254 15.1569C51.4291 14.9922 51.6659 14.9098 51.9646 14.9098H55.8262C57.0619 14.9098 57.999 15.1878 58.6375 15.7439C59.2862 16.2897 59.6106 17.0826 59.6106 18.1226C59.6106 18.967 59.3686 19.6621 58.8846 20.2079C58.4109 20.7434 57.7364 21.0884 56.8611 21.2428C57.1597 21.3149 57.4223 21.4436 57.6489 21.629C57.8754 21.8144 58.0968 22.0718 58.3131 22.4013L59.7187 24.5484ZM55.5482 19.899C56.2999 19.899 56.8508 19.76 57.2009 19.4819C57.5511 19.1936 57.7261 18.7559 57.7261 18.169C57.7261 17.5717 57.5511 17.1392 57.2009 16.8715C56.8508 16.5934 56.2999 16.4544 55.5482 16.4544H52.9532V19.899H55.5482Z" fill="black"/>
<path d="M63.3226 25.7995C63.0239 25.7995 62.7871 25.7172 62.612 25.5524C62.4473 25.3876 62.3649 25.1559 62.3649 24.8573V15.852C62.3649 15.5534 62.4473 15.3217 62.612 15.1569C62.7871 14.9922 63.0239 14.9098 63.3226 14.9098H66.381C68.1625 14.9098 69.5424 15.3886 70.5206 16.3463C71.5092 17.2937 72.0035 18.6272 72.0035 20.3469C72.0035 22.0769 71.5092 23.4208 70.5206 24.3785C69.5424 25.3259 68.1625 25.7995 66.381 25.7995H63.3226ZM66.2574 24.1777C68.7597 24.1777 70.0109 22.9008 70.0109 20.3469C70.0109 17.8034 68.7597 16.5317 66.2574 16.5317H64.3575V24.1777H66.2574Z" fill="black"/>
<path d="M78.3969 25.9386C77.604 25.9386 76.8522 25.8356 76.1417 25.6296C75.4415 25.4134 74.8699 25.125 74.4271 24.7646C74.1903 24.5896 74.0719 24.3424 74.0719 24.0232C74.0719 23.8069 74.1337 23.6216 74.2572 23.4671C74.3911 23.3024 74.5456 23.22 74.7206 23.22C74.906 23.22 75.1171 23.2921 75.3539 23.4362C75.7967 23.7555 76.2601 23.9872 76.7441 24.1313C77.2281 24.2755 77.7636 24.3476 78.3505 24.3476C79.1023 24.3476 79.6789 24.2189 80.0806 23.9614C80.4822 23.6937 80.683 23.3075 80.683 22.8029C80.683 22.4116 80.4925 22.113 80.1115 21.907C79.7407 21.6908 79.1177 21.4848 78.2424 21.2892C77.3362 21.0935 76.5999 20.867 76.0336 20.6095C75.4672 20.3521 75.0398 20.0226 74.7515 19.6209C74.4632 19.2193 74.319 18.7096 74.319 18.0917C74.319 17.4533 74.4992 16.8818 74.8596 16.3772C75.2201 15.8726 75.7195 15.4813 76.3579 15.2033C77.0067 14.9149 77.7327 14.7708 78.5359 14.7708C80.0085 14.7708 81.2081 15.1621 82.1349 15.9447C82.2688 16.058 82.3615 16.1712 82.413 16.2845C82.4748 16.3875 82.5057 16.5214 82.5057 16.6861C82.5057 16.9024 82.4387 17.0929 82.3048 17.2576C82.1813 17.4121 82.032 17.4893 81.8569 17.4893C81.7539 17.4893 81.6561 17.4739 81.5634 17.443C81.481 17.4121 81.3678 17.3555 81.2236 17.2731C80.8014 16.9642 80.3895 16.7376 79.9879 16.5934C79.5966 16.439 79.1126 16.3617 78.5359 16.3617C77.8357 16.3617 77.2796 16.5059 76.8677 16.7942C76.4661 17.0723 76.2653 17.4636 76.2653 17.9682C76.2653 18.3904 76.4455 18.7148 76.8059 18.9413C77.1663 19.1679 77.779 19.379 78.644 19.5746C79.5605 19.7806 80.302 20.0123 80.8683 20.2697C81.445 20.5168 81.8826 20.8361 82.1813 21.2274C82.4902 21.6187 82.6447 22.1078 82.6447 22.6948C82.6447 23.3333 82.4645 23.8996 82.104 24.3939C81.7539 24.8779 81.2545 25.2589 80.6057 25.537C79.9673 25.8047 79.231 25.9386 78.3969 25.9386Z" fill="black"/>
<path d="M4.8081 9.45729C3.96324 9.45729 3.22192 9.27507 2.58414 8.91062C1.95464 8.54617 1.47009 8.02435 1.13049 7.34515C0.790893 6.66595 0.621094 5.8708 0.621094 4.95968C0.621094 4.04856 0.790893 3.25754 1.13049 2.58663C1.47009 1.90743 1.95464 1.38561 2.58414 1.02116C3.22192 0.656711 3.96324 0.474487 4.8081 0.474487C5.35477 0.474487 5.86831 0.557316 6.34872 0.722975C6.82913 0.88035 7.25569 1.11227 7.62843 1.41874C7.7361 1.50157 7.81065 1.58854 7.85206 1.67965C7.89348 1.77076 7.91419 1.88258 7.91419 2.01511C7.91419 2.19733 7.86449 2.35056 7.76509 2.47481C7.6657 2.59905 7.5456 2.66117 7.40479 2.66117C7.23913 2.66117 7.06933 2.60319 6.89539 2.48723C6.53922 2.22218 6.20791 2.03996 5.90144 1.94056C5.59497 1.83288 5.25538 1.77904 4.88264 1.77904C4.02122 1.77904 3.36687 2.04824 2.9196 2.58663C2.4806 3.12501 2.26111 3.91603 2.26111 4.95968C2.26111 6.01161 2.4806 6.80676 2.9196 7.34515C3.36687 7.88354 4.02122 8.15273 4.88264 8.15273C5.23881 8.15273 5.56598 8.0989 5.86417 7.99122C6.17064 7.88354 6.51438 7.70132 6.89539 7.44455C6.97822 7.39485 7.06105 7.35343 7.14388 7.3203C7.2267 7.28717 7.31368 7.27061 7.40479 7.27061C7.5456 7.27061 7.6657 7.33273 7.76509 7.45697C7.86449 7.58121 7.91419 7.73445 7.91419 7.91667C7.91419 8.04092 7.89348 8.15273 7.85206 8.25213C7.81065 8.34324 7.7361 8.43021 7.62843 8.51304C7.25569 8.81951 6.82913 9.05557 6.34872 9.22123C5.86831 9.3786 5.35477 9.45729 4.8081 9.45729Z" fill="#DD0000"/>
<path d="M10.0727 9.34547C9.83252 9.34547 9.64615 9.27921 9.51363 9.14668C9.3811 9.01416 9.31484 8.83193 9.31484 8.60001V1.31934C9.31484 1.07914 9.38524 0.888633 9.52605 0.747823C9.67514 0.598731 9.86979 0.524185 10.11 0.524185C10.3585 0.524185 10.5531 0.598731 10.6939 0.747823C10.843 0.888633 10.9176 1.07914 10.9176 1.31934V8.02849H14.4088C14.9058 8.02849 15.1543 8.24799 15.1543 8.68698C15.1543 9.12597 14.9058 9.34547 14.4088 9.34547H10.0727Z" fill="#DD0000"/>
<path d="M24.0728 8.3888C24.1225 8.49648 24.1474 8.60415 24.1474 8.71183C24.1474 8.90234 24.0687 9.06385 23.9113 9.19638C23.7622 9.32891 23.5883 9.39517 23.3895 9.39517C23.257 9.39517 23.1327 9.36204 23.0168 9.29577C22.9008 9.22123 22.8097 9.10941 22.7434 8.96032L21.998 7.29545H17.6246L16.8791 8.96032C16.8129 9.10941 16.7218 9.22123 16.6058 9.29577C16.4898 9.36204 16.3614 9.39517 16.2206 9.39517C16.0301 9.39517 15.8562 9.32891 15.6988 9.19638C15.5414 9.06385 15.4628 8.90234 15.4628 8.71183C15.4628 8.60415 15.4876 8.49648 15.5373 8.3888L18.9664 1.02116C19.041 0.855501 19.1528 0.731257 19.3019 0.648428C19.4592 0.557316 19.6249 0.511761 19.7988 0.511761C19.9728 0.511761 20.1343 0.557316 20.2834 0.648428C20.4408 0.731257 20.5567 0.855501 20.6313 1.02116L24.0728 8.3888ZM18.1713 6.05302H21.4513L19.8113 2.36299L18.1713 6.05302Z" fill="#DD0000"/>
<path d="M28.2893 9.45729C27.6516 9.45729 27.0469 9.37446 26.4754 9.2088C25.9121 9.03486 25.4524 8.80294 25.0963 8.51304C24.9058 8.37223 24.8105 8.17344 24.8105 7.91667C24.8105 7.74273 24.8602 7.59364 24.9596 7.4694C25.0673 7.33687 25.1915 7.27061 25.3323 7.27061C25.4814 7.27061 25.6512 7.32859 25.8417 7.44455C26.1979 7.70132 26.5706 7.88768 26.9599 8.00364C27.3492 8.1196 27.7799 8.17758 28.2521 8.17758C28.8567 8.17758 29.3206 8.07405 29.6436 7.86697C29.9666 7.65162 30.1281 7.34101 30.1281 6.93515C30.1281 6.6204 29.9749 6.38019 29.6684 6.21454C29.3703 6.0406 28.8691 5.87494 28.1651 5.71756C27.4362 5.56019 26.844 5.37796 26.3884 5.17089C25.9329 4.96382 25.5891 4.69877 25.3572 4.37573C25.1253 4.0527 25.0093 3.6427 25.0093 3.14572C25.0093 2.63218 25.1543 2.17248 25.4442 1.76662C25.7341 1.36076 26.1358 1.04601 26.6493 0.822369C27.1711 0.590448 27.7551 0.474487 28.4012 0.474487C29.5856 0.474487 30.5506 0.789238 31.296 1.41874C31.4037 1.50985 31.4783 1.60096 31.5197 1.69207C31.5694 1.7749 31.5942 1.88258 31.5942 2.01511C31.5942 2.18905 31.5404 2.34228 31.4327 2.47481C31.3333 2.59905 31.2132 2.66117 31.0724 2.66117C30.9896 2.66117 30.9109 2.64875 30.8363 2.6239C30.7701 2.59905 30.679 2.55349 30.563 2.48723C30.2234 2.23874 29.8921 2.05652 29.569 1.94056C29.2543 1.81632 28.865 1.7542 28.4012 1.7542C27.8379 1.7542 27.3906 1.87016 27.0593 2.10208C26.7363 2.32572 26.5748 2.64047 26.5748 3.04633C26.5748 3.38593 26.7197 3.64684 27.0096 3.82906C27.2995 4.01129 27.7924 4.18108 28.4881 4.33846C29.2253 4.50412 29.8217 4.69048 30.2772 4.89756C30.7411 5.09634 31.0931 5.35311 31.3333 5.66786C31.5818 5.98261 31.706 6.37605 31.706 6.84818C31.706 7.36172 31.5611 7.81728 31.2712 8.21486C30.9896 8.60415 30.5878 8.91062 30.066 9.13426C29.5525 9.34961 28.9603 9.45729 28.2893 9.45729Z" fill="#DD0000"/>
<path d="M36.2123 9.45729C35.5745 9.45729 34.9698 9.37446 34.3983 9.2088C33.8351 9.03486 33.3754 8.80294 33.0192 8.51304C32.8287 8.37223 32.7335 8.17344 32.7335 7.91667C32.7335 7.74273 32.7832 7.59364 32.8826 7.4694C32.9902 7.33687 33.1145 7.27061 33.2553 7.27061C33.4044 7.27061 33.5742 7.32859 33.7647 7.44455C34.1209 7.70132 34.4936 7.88768 34.8829 8.00364C35.2722 8.1196 35.7029 8.17758 36.175 8.17758C36.7797 8.17758 37.2435 8.07405 37.5665 7.86697C37.8896 7.65162 38.0511 7.34101 38.0511 6.93515C38.0511 6.6204 37.8979 6.38019 37.5914 6.21454C37.2932 6.0406 36.7921 5.87494 36.088 5.71756C35.3591 5.56019 34.7669 5.37796 34.3114 5.17089C33.8558 4.96382 33.5121 4.69877 33.2801 4.37573C33.0482 4.0527 32.9323 3.6427 32.9323 3.14572C32.9323 2.63218 33.0772 2.17248 33.3671 1.76662C33.657 1.36076 34.0587 1.04601 34.5723 0.822369C35.0941 0.590448 35.678 0.474487 36.3241 0.474487C37.5086 0.474487 38.4735 0.789238 39.219 1.41874C39.3267 1.50985 39.4012 1.60096 39.4426 1.69207C39.4923 1.7749 39.5172 1.88258 39.5172 2.01511C39.5172 2.18905 39.4633 2.34228 39.3556 2.47481C39.2562 2.59905 39.1361 2.66117 38.9953 2.66117C38.9125 2.66117 38.8338 2.64875 38.7593 2.6239C38.693 2.59905 38.6019 2.55349 38.4859 2.48723C38.1463 2.23874 37.815 2.05652 37.492 1.94056C37.1772 1.81632 36.7879 1.7542 36.3241 1.7542C35.7609 1.7542 35.3136 1.87016 34.9823 2.10208C34.6592 2.32572 34.4977 2.64047 34.4977 3.04633C34.4977 3.38593 34.6427 3.64684 34.9326 3.82906C35.2225 4.01129 35.7153 4.18108 36.4111 4.33846C37.1483 4.50412 37.7446 4.69048 38.2002 4.89756C38.664 5.09634 39.016 5.35311 39.2562 5.66786C39.5047 5.98261 39.629 6.37605 39.629 6.84818C39.629 7.36172 39.484 7.81728 39.1941 8.21486C38.9125 8.60415 38.5108 8.91062 37.989 9.13426C37.4754 9.34961 36.8832 9.45729 36.2123 9.45729Z" fill="#DD0000"/>
<path d="M41.8988 9.42002C41.6586 9.42002 41.464 9.34547 41.3149 9.19638C41.1741 9.04729 41.1037 8.85264 41.1037 8.61244V1.31934C41.1037 1.07914 41.1741 0.888633 41.3149 0.747823C41.464 0.598731 41.6586 0.524185 41.8988 0.524185C42.1473 0.524185 42.342 0.598731 42.4828 0.747823C42.6319 0.888633 42.7064 1.07914 42.7064 1.31934V8.61244C42.7064 8.85264 42.6319 9.04729 42.4828 9.19638C42.342 9.34547 42.1473 9.42002 41.8988 9.42002Z" fill="#DD0000"/>
<path d="M48.5117 9.45729C47.6668 9.45729 46.9255 9.27507 46.2877 8.91062C45.6582 8.54617 45.1737 8.02435 44.8341 7.34515C44.4945 6.66595 44.3247 5.8708 44.3247 4.95968C44.3247 4.04856 44.4945 3.25754 44.8341 2.58663C45.1737 1.90743 45.6582 1.38561 46.2877 1.02116C46.9255 0.656711 47.6668 0.474487 48.5117 0.474487C49.0584 0.474487 49.5719 0.557316 50.0523 0.722975C50.5327 0.88035 50.9593 1.11227 51.332 1.41874C51.4397 1.50157 51.5143 1.58854 51.5557 1.67965C51.5971 1.77076 51.6178 1.88258 51.6178 2.01511C51.6178 2.19733 51.5681 2.35056 51.4687 2.47481C51.3693 2.59905 51.2492 2.66117 51.1084 2.66117C50.9427 2.66117 50.7729 2.60319 50.599 2.48723C50.2428 2.22218 49.9115 2.03996 49.605 1.94056C49.2986 1.83288 48.959 1.77904 48.5863 1.77904C47.7248 1.77904 47.0705 2.04824 46.6232 2.58663C46.1842 3.12501 45.9647 3.91603 45.9647 4.95968C45.9647 6.01161 46.1842 6.80676 46.6232 7.34515C47.0705 7.88354 47.7248 8.15273 48.5863 8.15273C48.9424 8.15273 49.2696 8.0989 49.5678 7.99122C49.8742 7.88354 50.218 7.70132 50.599 7.44455C50.6818 7.39485 50.7647 7.35343 50.8475 7.3203C50.9303 7.28717 51.0173 7.27061 51.1084 7.27061C51.2492 7.27061 51.3693 7.33273 51.4687 7.45697C51.5681 7.58121 51.6178 7.73445 51.6178 7.91667C51.6178 8.04092 51.5971 8.15273 51.5557 8.25213C51.5143 8.34324 51.4397 8.43021 51.332 8.51304C50.9593 8.81951 50.5327 9.05557 50.0523 9.22123C49.5719 9.3786 49.0584 9.45729 48.5117 9.45729Z" fill="#DD0000"/>
<path d="M57.1866 9.42002C56.9464 9.42002 56.7518 9.34547 56.6027 9.19638C56.4619 9.04729 56.3915 8.85264 56.3915 8.61244V1.34419C56.3915 1.10399 56.4577 0.917623 56.5903 0.785096C56.7311 0.65257 56.9216 0.586306 57.1618 0.586306H61.5227C62.028 0.586306 62.2806 0.801662 62.2806 1.23237C62.2806 1.6548 62.028 1.86601 61.5227 1.86601H57.9694V4.25149H61.2742C61.7795 4.25149 62.0321 4.46684 62.0321 4.89756C62.0321 5.31998 61.7795 5.5312 61.2742 5.5312H57.9694V8.61244C57.9694 8.85264 57.8989 9.04729 57.7581 9.19638C57.6173 9.34547 57.4268 9.42002 57.1866 9.42002Z" fill="#DD0000"/>
<path d="M64.1866 9.34547C63.9464 9.34547 63.76 9.27921 63.6275 9.14668C63.495 9.01416 63.4287 8.83193 63.4287 8.60001V1.31934C63.4287 1.07914 63.4991 0.888633 63.6399 0.747823C63.789 0.598731 63.9836 0.524185 64.2238 0.524185C64.4723 0.524185 64.667 0.598731 64.8078 0.747823C64.9569 0.888633 65.0314 1.07914 65.0314 1.31934V8.02849H68.5227C69.0196 8.02849 69.2681 8.24799 69.2681 8.68698C69.2681 9.12597 69.0196 9.34547 68.5227 9.34547H64.1866Z" fill="#DD0000"/>
<path d="M71.1155 9.42002C70.8753 9.42002 70.6806 9.34547 70.5315 9.19638C70.3907 9.04729 70.3203 8.85264 70.3203 8.61244V1.31934C70.3203 1.07914 70.3907 0.888633 70.5315 0.747823C70.6806 0.598731 70.8753 0.524185 71.1155 0.524185C71.364 0.524185 71.5586 0.598731 71.6994 0.747823C71.8485 0.888633 71.9231 1.07914 71.9231 1.31934V8.61244C71.9231 8.85264 71.8485 9.04729 71.6994 9.19638C71.5586 9.34547 71.364 9.42002 71.1155 9.42002Z" fill="#DD0000"/>
<path d="M80.4865 4.6118C80.677 4.6118 80.8303 4.66978 80.9462 4.78574C81.0622 4.89341 81.1202 5.03836 81.1202 5.22059V7.89182C81.1202 8.27284 81.0705 8.54203 80.9711 8.69941C80.8717 8.85678 80.6688 8.98517 80.3623 9.08456C80.031 9.20052 79.6458 9.29163 79.2068 9.3579C78.7678 9.42416 78.3454 9.45729 77.9396 9.45729C77.0367 9.45729 76.254 9.27921 75.5913 8.92304C74.9287 8.56688 74.4193 8.05334 74.0631 7.38242C73.7153 6.70323 73.5413 5.89564 73.5413 4.95968C73.5413 4.04028 73.7153 3.24512 74.0631 2.5742C74.4193 1.895 74.9204 1.37732 75.5665 1.02116C76.2126 0.656711 76.9746 0.474487 77.8526 0.474487C79.0205 0.474487 79.9771 0.789238 80.7226 1.41874C80.822 1.50985 80.8924 1.60096 80.9338 1.69207C80.9835 1.78319 81.0084 1.89086 81.0084 2.01511C81.0084 2.19733 80.9587 2.35056 80.8593 2.47481C80.7599 2.59905 80.6398 2.66117 80.499 2.66117C80.4079 2.66117 80.325 2.64875 80.2505 2.6239C80.1759 2.59077 80.089 2.54107 79.9896 2.47481C79.6251 2.21804 79.2855 2.03996 78.9708 1.94056C78.656 1.83288 78.2999 1.77904 77.9023 1.77904C76.9994 1.77904 76.3161 2.04824 75.8523 2.58663C75.3967 3.11673 75.1689 3.90775 75.1689 4.95968C75.1689 7.11323 76.1132 8.19001 78.0017 8.19001C78.5649 8.19001 79.1281 8.11132 79.6914 7.95395V5.75484H78.2874C78.0886 5.75484 77.9313 5.70514 77.8153 5.60574C77.7076 5.50635 77.6538 5.36554 77.6538 5.18332C77.6538 5.00109 77.7076 4.86028 77.8153 4.76089C77.9313 4.66149 78.0886 4.6118 78.2874 4.6118H80.4865Z" fill="#DD0000"/>
<path d="M89.7725 0.524185C90.0127 0.524185 90.2032 0.598731 90.344 0.747823C90.4848 0.888633 90.5552 1.07914 90.5552 1.31934V8.61244C90.5552 8.85264 90.4807 9.04729 90.3316 9.19638C90.1908 9.34547 90.0044 9.42002 89.7725 9.42002C89.5323 9.42002 89.3418 9.34547 89.201 9.19638C89.0601 9.04729 88.9897 8.85264 88.9897 8.61244V5.54362H84.5046V8.61244C84.5046 8.85264 84.43 9.04729 84.2809 9.19638C84.1401 9.34547 83.9496 9.42002 83.7094 9.42002C83.4775 9.42002 83.287 9.34547 83.1379 9.19638C82.9971 9.04729 82.9267 8.85264 82.9267 8.61244V1.31934C82.9267 1.07914 82.9971 0.888633 83.1379 0.747823C83.2787 0.598731 83.4692 0.524185 83.7094 0.524185C83.9496 0.524185 84.1401 0.598731 84.2809 0.747823C84.43 0.888633 84.5046 1.07914 84.5046 1.31934V4.25149H88.9897V1.31934C88.9897 1.07914 89.0601 0.888633 89.201 0.747823C89.3418 0.598731 89.5323 0.524185 89.7725 0.524185Z" fill="#DD0000"/>
<path d="M95.3091 9.40759C95.0606 9.40759 94.8618 9.33719 94.7127 9.19638C94.5719 9.04729 94.5015 8.85264 94.5015 8.61244V1.90329H92.2403C91.7433 1.90329 91.4948 1.68379 91.4948 1.2448C91.4948 0.805803 91.7433 0.586306 92.2403 0.586306H98.3655C98.8624 0.586306 99.1109 0.805803 99.1109 1.2448C99.1109 1.68379 98.8624 1.90329 98.3655 1.90329H96.1042V8.61244C96.1042 8.85264 96.0297 9.04729 95.8806 9.19638C95.7398 9.33719 95.5493 9.40759 95.3091 9.40759Z" fill="#DD0000"/>
<path d="M98.4591 19.6582L87.5393 15.0483C87.0533 14.8431 86.6128 15.4194 86.9384 15.8345L90.1128 19.8818C90.2605 20.0701 90.2578 20.3355 90.1064 20.5207L87.0654 24.2407C86.7296 24.6514 87.1645 25.2384 87.6552 25.0369L98.4544 20.6018C98.8748 20.4292 98.8777 19.8349 98.4591 19.6582Z" fill="#DD0000"/>
<circle cx="105.871" cy="5.46768" r="1.15957" fill="black"/>
<circle cx="105.871" cy="12.0581" r="1.85547" fill="black"/>
<circle cx="105.869" cy="20.2721" r="2.78321" fill="#DD0000"/>
<circle cx="105.871" cy="28.4861" r="1.85547" fill="black"/>
<circle cx="105.871" cy="35.0766" r="1.15957" fill="black"/>
<circle cx="114.578" cy="20.1947" r="1.85547" fill="black"/>
<circle cx="120.839" cy="20.1947" r="1.15957" fill="black"/>
</g>
<defs>
<clipPath id="clip0_564_41865">
<rect width="122" height="37" fill="white"/>
</clipPath>
</defs>
</svg>
