<svg width="28" height="28" viewBox="0 0 28 28" fill="none" xmlns="http://www.w3.org/2000/svg">
<path d="M13.9292 27.9253C6.23857 27.9253 0.00390625 21.6906 0.00390625 14C0.00390625 6.30931 6.23857 0.074646 13.9292 0.074646C21.6199 0.074646 27.8546 6.30931 27.8546 14C27.8546 21.6906 21.6199 27.9253 13.9292 27.9253Z" fill="#E40000"/>
<path d="M22.48 21.4667H22.5174C22.5547 21.4667 22.5547 21.4667 22.592 21.4293C22.6294 21.392 22.6294 21.3547 22.592 21.3173C20.8747 19.5253 18.7467 18.032 16.3947 17.0987C15.6854 16.8 15.6854 16.8 15.6854 16.8C15.312 16.6507 15.0507 16.2773 15.0507 15.8667C15.088 14.2987 18.7467 14.6347 19.12 13.888C19.1947 13.776 19.1947 13.776 19.1947 13.776C18.448 13.1413 17.552 12.656 16.5814 12.3573C16.5814 12.3947 16.544 12.5813 16.7307 12.9173C16.9547 13.2533 16.5067 13.8133 15.8347 13.216C15.76 13.1787 15.76 13.1787 15.76 13.1787C10.9067 8.73599 8.70404 11.6853 5.4187 6.53333C5.38137 6.49599 5.34404 6.45866 5.3067 6.49599C5.26937 6.53333 5.23204 6.57066 5.26937 6.60799C7.84537 12.88 13.1467 11.5733 13.7814 17.3973C13.8187 17.6213 13.968 17.7707 14.192 17.808C17.104 18.256 19.9787 19.488 22.48 21.4667Z" fill="white"/>
</svg>
