<svg width="14" height="18" viewBox="0 0 14 18" fill="none" xmlns="http://www.w3.org/2000/svg">
<path d="M9.44871 14.75L6.99871 13.3083L4.54871 14.75L5.19871 11.9666L3.04037 10.1L5.88204 9.85829L6.99871 7.24996L8.11537 9.85829L10.957 10.1L8.79871 11.9666M13.6654 0.166626H0.332041V1.83329L4.38204 4.86663C2.96905 5.46961 1.80767 6.5421 1.09432 7.90272C0.38097 9.26333 0.159426 10.8286 0.467157 12.3337C0.774888 13.8388 1.59301 15.1915 2.78315 16.1629C3.9733 17.1344 5.46243 17.665 6.99871 17.665C8.53498 17.665 10.0241 17.1344 11.2143 16.1629C12.4044 15.1915 13.2225 13.8388 13.5303 12.3337C13.838 10.8286 13.6164 9.26333 12.9031 7.90272C12.1897 6.5421 11.0284 5.46961 9.61537 4.86663L13.6654 1.83329M11.9987 11C11.9992 11.9469 11.7307 12.8744 11.2246 13.6747C10.7185 14.475 9.99557 15.1151 9.13989 15.5206C8.28421 15.9261 7.33098 16.0803 6.39111 15.9653C5.45123 15.8502 4.56334 15.4706 3.83076 14.8707C3.09817 14.2707 2.55101 13.4751 2.25292 12.5763C1.95484 11.6776 1.91809 10.7127 2.14695 9.79383C2.37581 8.87501 2.86087 8.04006 3.5457 7.38613C4.23053 6.7322 5.08697 6.28618 6.01537 6.09996C6.66415 5.96659 7.33327 5.96659 7.98204 6.09996C9.11448 6.32711 10.1333 6.9393 10.8656 7.83254C11.5978 8.72578 11.9982 9.84496 11.9987 11ZM7.52371 4.33329H6.47371L3.14037 1.83329H10.9237L7.52371 4.33329Z" fill="#6A6E85"/>
</svg>
