<svg width="384" height="98" viewBox="0 0 384 98" fill="none" xmlns="http://www.w3.org/2000/svg">
<path d="M4.66683 96.3479C3.5455 96.3479 2.63683 95.9999 1.94083 95.3039C1.2835 94.6079 0.954834 93.6992 0.954834 92.5779V58.6479C0.954834 57.5266 1.26417 56.6566 1.88283 56.0379C2.54017 55.4192 3.4295 55.1099 4.55083 55.1099H24.9088C27.2675 55.1099 28.4468 56.1152 28.4468 58.1259C28.4468 60.0979 27.2675 61.0839 24.9088 61.0839H8.32083V72.2199H23.7488C26.1075 72.2199 27.2868 73.2252 27.2868 75.2359C27.2868 77.2079 26.1075 78.1939 23.7488 78.1939H8.32083V92.5779C8.32083 93.6992 7.99217 94.6079 7.33483 95.3039C6.6775 95.9999 5.78817 96.3479 4.66683 96.3479Z" fill="black"/>
<path d="M39.6644 95.9999C38.5431 95.9999 37.6731 95.6906 37.0544 95.0719C36.4357 94.4532 36.1264 93.6026 36.1264 92.5199V58.5319C36.1264 57.4106 36.4551 56.5212 37.1124 55.8639C37.8084 55.1679 38.7171 54.8199 39.8384 54.8199C40.9984 54.8199 41.9071 55.1679 42.5644 55.8639C43.2604 56.5212 43.6084 57.4106 43.6084 58.5319V89.8519H59.9064C62.2264 89.8519 63.3864 90.8766 63.3864 92.9259C63.3864 94.9752 62.2264 95.9999 59.9064 95.9999H39.6644Z" fill="black"/>
<path d="M74.3303 96.3479C73.2089 96.3479 72.3003 95.9999 71.6043 95.3039C70.9469 94.6079 70.6183 93.6992 70.6183 92.5779V58.5319C70.6183 57.4106 70.9469 56.5212 71.6043 55.8639C72.3003 55.1679 73.2089 54.8199 74.3303 54.8199C75.4903 54.8199 76.3989 55.1679 77.0563 55.8639C77.7523 56.5212 78.1003 57.4106 78.1003 58.5319V92.5779C78.1003 93.6992 77.7523 94.6079 77.0563 95.3039C76.3989 95.9999 75.4903 96.3479 74.3303 96.3479Z" fill="black"/>
<path d="M120.397 73.9019C121.286 73.9019 122.001 74.1726 122.543 74.7139C123.084 75.2166 123.355 75.8932 123.355 76.7439V89.2139C123.355 90.9926 123.123 92.2492 122.659 92.9839C122.195 93.7186 121.247 94.3179 119.817 94.7819C118.27 95.3232 116.472 95.7486 114.423 96.0579C112.373 96.3672 110.401 96.5219 108.507 96.5219C104.292 96.5219 100.638 95.6906 97.5448 94.0279C94.4514 92.3652 92.0734 89.9679 90.4108 86.8359C88.7868 83.6652 87.9748 79.8952 87.9748 75.5259C87.9748 71.2339 88.7868 67.5219 90.4108 64.3899C92.0734 61.2192 94.4128 58.8026 97.4288 57.1399C100.445 55.4386 104.002 54.5879 108.101 54.5879C113.553 54.5879 118.019 56.0572 121.499 58.9959C121.963 59.4212 122.291 59.8466 122.485 60.2719C122.717 60.6972 122.833 61.1999 122.833 61.7799C122.833 62.6306 122.601 63.3459 122.137 63.9259C121.673 64.5059 121.112 64.7959 120.455 64.7959C120.029 64.7959 119.643 64.7379 119.295 64.6219C118.947 64.4672 118.541 64.2352 118.077 63.9259C116.375 62.7272 114.79 61.8959 113.321 61.4319C111.851 60.9292 110.189 60.6779 108.333 60.6779C104.118 60.6779 100.928 61.9346 98.7628 64.4479C96.6361 66.9226 95.5728 70.6152 95.5728 75.5259C95.5728 85.5792 99.9808 90.6059 108.797 90.6059C111.426 90.6059 114.055 90.2386 116.685 89.5039V79.2379H110.131C109.203 79.2379 108.468 79.0059 107.927 78.5419C107.424 78.0779 107.173 77.4206 107.173 76.5699C107.173 75.7192 107.424 75.0619 107.927 74.5979C108.468 74.1339 109.203 73.9019 110.131 73.9019H120.397Z" fill="black"/>
<path d="M166.066 54.8199C167.187 54.8199 168.077 55.1679 168.734 55.8639C169.391 56.5212 169.72 57.4106 169.72 58.5319V92.5779C169.72 93.6992 169.372 94.6079 168.676 95.3039C168.019 95.9999 167.149 96.3479 166.066 96.3479C164.945 96.3479 164.055 95.9999 163.398 95.3039C162.741 94.6079 162.412 93.6992 162.412 92.5779V78.2519H141.474V92.5779C141.474 93.6992 141.126 94.6079 140.43 95.3039C139.773 95.9999 138.883 96.3479 137.762 96.3479C136.679 96.3479 135.79 95.9999 135.094 95.3039C134.437 94.6079 134.108 93.6992 134.108 92.5779V58.5319C134.108 57.4106 134.437 56.5212 135.094 55.8639C135.751 55.1679 136.641 54.8199 137.762 54.8199C138.883 54.8199 139.773 55.1679 140.43 55.8639C141.126 56.5212 141.474 57.4106 141.474 58.5319V72.2199H162.412V58.5319C162.412 57.4106 162.741 56.5212 163.398 55.8639C164.055 55.1679 164.945 54.8199 166.066 54.8199Z" fill="black"/>
<path d="M194.232 96.2899C193.072 96.2899 192.144 95.9612 191.448 95.3039C190.791 94.6079 190.462 93.6992 190.462 92.5779V61.2579H179.906C177.586 61.2579 176.426 60.2332 176.426 58.1839C176.426 56.1346 177.586 55.1099 179.906 55.1099H208.5C210.82 55.1099 211.98 56.1346 211.98 58.1839C211.98 60.2332 210.82 61.2579 208.5 61.2579H197.944V92.5779C197.944 93.6992 197.596 94.6079 196.9 95.3039C196.243 95.9612 195.353 96.2899 194.232 96.2899Z" fill="black"/>
<path d="M231.574 96.5219C228.596 96.5219 225.774 96.1352 223.106 95.3619C220.476 94.5499 218.33 93.4672 216.668 92.1139C215.778 91.4566 215.334 90.5286 215.334 89.3299C215.334 88.5179 215.566 87.8219 216.03 87.2419C216.532 86.6232 217.112 86.3139 217.77 86.3139C218.466 86.3139 219.258 86.5846 220.148 87.1259C221.81 88.3246 223.55 89.1946 225.368 89.7359C227.185 90.2772 229.196 90.5479 231.4 90.5479C234.222 90.5479 236.388 90.0646 237.896 89.0979C239.404 88.0926 240.158 86.6426 240.158 84.7479C240.158 83.2786 239.442 82.1572 238.012 81.3839C236.62 80.5719 234.28 79.7986 230.994 79.0639C227.591 78.3292 224.826 77.4786 222.7 76.5119C220.573 75.5452 218.968 74.3079 217.886 72.7999C216.803 71.2919 216.262 69.3779 216.262 67.0579C216.262 64.6606 216.938 62.5146 218.292 60.6199C219.645 58.7252 221.52 57.2559 223.918 56.2119C226.354 55.1292 229.08 54.5879 232.096 54.5879C237.625 54.5879 242.13 56.0572 245.61 58.9959C246.112 59.4212 246.46 59.8466 246.654 60.2719C246.886 60.6586 247.002 61.1612 247.002 61.7799C247.002 62.5919 246.75 63.3072 246.248 63.9259C245.784 64.5059 245.223 64.7959 244.566 64.7959C244.179 64.7959 243.812 64.7379 243.464 64.6219C243.154 64.5059 242.729 64.2932 242.188 63.9839C240.602 62.8239 239.056 61.9732 237.548 61.4319C236.078 60.8519 234.261 60.5619 232.096 60.5619C229.466 60.5619 227.378 61.1032 225.832 62.1859C224.324 63.2299 223.57 64.6992 223.57 66.5939C223.57 68.1792 224.246 69.3972 225.6 70.2479C226.953 71.0986 229.254 71.8912 232.502 72.6259C235.943 73.3992 238.727 74.2692 240.854 75.2359C243.019 76.1639 244.662 77.3626 245.784 78.8319C246.944 80.3012 247.524 82.1379 247.524 84.3419C247.524 86.7392 246.847 88.8659 245.494 90.7219C244.179 92.5392 242.304 93.9699 239.868 95.0139C237.47 96.0192 234.706 96.5219 231.574 96.5219Z" fill="black"/>
<path d="M28.72 31.1121C29.104 31.6881 29.2959 32.2481 29.2959 32.7921C29.2959 33.5281 28.9919 34.1361 28.3839 34.6161C27.8079 35.0961 27.1199 35.3361 26.32 35.3361C25.8079 35.3361 25.3119 35.2241 24.8319 35.0001C24.3839 34.7441 24 34.3761 23.68 33.8961L17.2959 24.2001C16.656 23.1761 15.968 22.4561 15.232 22.0401C14.528 21.6241 13.5999 21.4161 12.448 21.4161H7.74395V32.1681C7.74395 33.1281 7.47195 33.8961 6.92795 34.4721C6.38395 35.0161 5.64795 35.2881 4.71995 35.2881C3.79195 35.2881 3.03995 35.0161 2.46395 34.4721C1.91995 33.8961 1.64795 33.1281 1.64795 32.1681V4.08807C1.64795 3.16007 1.90395 2.44007 2.41595 1.92807C2.95995 1.41607 3.69595 1.16007 4.62395 1.16007H16.6239C20.4639 1.16007 23.3759 2.02407 25.36 3.75207C27.3759 5.44807 28.3839 7.91207 28.3839 11.1441C28.3839 13.7681 27.632 15.9281 26.128 17.6241C24.656 19.2881 22.56 20.3601 19.84 20.8401C20.768 21.0641 21.584 21.4641 22.288 22.0401C22.9919 22.6161 23.6799 23.4161 24.3519 24.4401L28.72 31.1121ZM15.7599 16.6641C18.0959 16.6641 19.808 16.2321 20.896 15.3681C21.984 14.4721 22.528 13.1121 22.528 11.2881C22.528 9.43207 21.984 8.08807 20.896 7.25607C19.808 6.39207 18.0959 5.96007 15.7599 5.96007H7.69595V16.6641H15.7599Z" fill="#DD0000"/>
<path d="M45.199 35.0001C44.271 35.0001 43.535 34.7441 42.991 34.2321C42.479 33.7201 42.2229 33.0001 42.2229 32.0721V4.08807C42.2229 3.16007 42.479 2.44007 42.991 1.92807C43.535 1.41607 44.271 1.16007 45.199 1.16007H62.527C63.455 1.16007 64.1749 1.36807 64.687 1.78407C65.1989 2.20007 65.4549 2.79207 65.4549 3.56007C65.4549 4.36007 65.1989 4.98407 64.687 5.43207C64.1749 5.84807 63.455 6.05607 62.527 6.05607H48.271V15.3681H61.567C62.495 15.3681 63.215 15.5761 63.727 15.9921C64.239 16.4081 64.4949 17.0161 64.4949 17.8161C64.4949 18.5841 64.239 19.1761 63.727 19.5921C63.215 20.0081 62.495 20.2161 61.567 20.2161H48.271V30.1041H62.527C63.455 30.1041 64.1749 30.3281 64.687 30.7761C65.1989 31.1921 65.4549 31.8001 65.4549 32.6001C65.4549 33.3681 65.1989 33.9601 64.687 34.3761C64.1749 34.7921 63.455 35.0001 62.527 35.0001H45.199Z" fill="#DD0000"/>
<path d="M120.121 2.79207C120.345 2.15207 120.697 1.67207 121.177 1.35207C121.689 1.03207 122.249 0.87207 122.857 0.87207C123.625 0.87207 124.281 1.11207 124.825 1.59207C125.401 2.07207 125.689 2.71207 125.689 3.51207C125.689 3.80007 125.609 4.21607 125.449 4.76007L115.129 33.3201C114.873 33.9601 114.441 34.4561 113.833 34.8081C113.257 35.1601 112.617 35.3361 111.913 35.3361C111.209 35.3361 110.553 35.1601 109.945 34.8081C109.337 34.4561 108.921 33.9601 108.697 33.3201L100.729 10.7121L92.6166 33.3201C92.3606 33.9601 91.9286 34.4561 91.3206 34.8081C90.7446 35.1601 90.1046 35.3361 89.4006 35.3361C88.6966 35.3361 88.0406 35.1601 87.4326 34.8081C86.8566 34.4561 86.4566 33.9601 86.2326 33.3201L75.9126 4.76007C75.7526 4.28007 75.6726 3.86407 75.6726 3.51207C75.6726 2.71207 75.9606 2.07207 76.5366 1.59207C77.1446 1.11207 77.8486 0.87207 78.6486 0.87207C79.2886 0.87207 79.8646 1.03207 80.3766 1.35207C80.8886 1.67207 81.2566 2.15207 81.4806 2.79207L89.6406 26.2641L98.0406 2.93607C98.2646 2.29607 98.6326 1.80007 99.1446 1.44807C99.6566 1.06407 100.217 0.87207 100.825 0.87207C101.433 0.87207 101.993 1.06407 102.505 1.44807C103.049 1.80007 103.433 2.31207 103.657 2.98407L111.817 26.5521L120.121 2.79207Z" fill="#DD0000"/>
<path d="M165.623 31.3041C165.815 31.7201 165.911 32.1361 165.911 32.5521C165.911 33.2881 165.607 33.9121 164.999 34.4241C164.423 34.9361 163.751 35.1921 162.983 35.1921C162.471 35.1921 161.991 35.0641 161.543 34.8081C161.095 34.5201 160.743 34.0881 160.487 33.5121L157.607 27.0801H140.711L137.831 33.5121C137.575 34.0881 137.223 34.5201 136.775 34.8081C136.327 35.0641 135.831 35.1921 135.287 35.1921C134.551 35.1921 133.879 34.9361 133.271 34.4241C132.663 33.9121 132.359 33.2881 132.359 32.5521C132.359 32.1361 132.455 31.7201 132.647 31.3041L145.895 2.84007C146.183 2.20007 146.615 1.72007 147.191 1.40007C147.799 1.04807 148.439 0.87207 149.111 0.87207C149.783 0.87207 150.407 1.04807 150.983 1.40007C151.591 1.72007 152.039 2.20007 152.327 2.84007L165.623 31.3041ZM142.823 22.2801H155.495L149.159 8.02407L142.823 22.2801Z" fill="#DD0000"/>
<path d="M204.848 31.1121C205.232 31.6881 205.424 32.2481 205.424 32.7921C205.424 33.5281 205.12 34.1361 204.512 34.6161C203.936 35.0961 203.248 35.3361 202.448 35.3361C201.936 35.3361 201.44 35.2241 200.96 35.0001C200.512 34.7441 200.128 34.3761 199.808 33.8961L193.424 24.2001C192.784 23.1761 192.096 22.4561 191.36 22.0401C190.656 21.6241 189.728 21.4161 188.576 21.4161H183.872V32.1681C183.872 33.1281 183.6 33.8961 183.056 34.4721C182.512 35.0161 181.776 35.2881 180.848 35.2881C179.92 35.2881 179.168 35.0161 178.592 34.4721C178.048 33.8961 177.776 33.1281 177.776 32.1681V4.08807C177.776 3.16007 178.032 2.44007 178.544 1.92807C179.088 1.41607 179.824 1.16007 180.752 1.16007H192.752C196.592 1.16007 199.504 2.02407 201.488 3.75207C203.504 5.44807 204.512 7.91207 204.512 11.1441C204.512 13.7681 203.76 15.9281 202.256 17.6241C200.784 19.2881 198.688 20.3601 195.968 20.8401C196.896 21.0641 197.712 21.4641 198.416 22.0401C199.12 22.6161 199.808 23.4161 200.48 24.4401L204.848 31.1121ZM191.888 16.6641C194.224 16.6641 195.936 16.2321 197.024 15.3681C198.112 14.4721 198.656 13.1121 198.656 11.2881C198.656 9.43207 198.112 8.08807 197.024 7.25607C195.936 6.39207 194.224 5.96007 191.888 5.96007H183.824V16.6641H191.888Z" fill="#DD0000"/>
<path d="M221.327 35.0001C220.399 35.0001 219.663 34.7441 219.119 34.2321C218.607 33.7201 218.351 33.0001 218.351 32.0721V4.08807C218.351 3.16007 218.607 2.44007 219.119 1.92807C219.663 1.41607 220.399 1.16007 221.327 1.16007H230.831C236.367 1.16007 240.655 2.64807 243.695 5.62407C246.767 8.56807 248.303 12.7121 248.303 18.0561C248.303 23.4321 246.767 27.6081 243.695 30.5841C240.655 33.5281 236.367 35.0001 230.831 35.0001H221.327ZM230.447 29.9601C238.223 29.9601 242.111 25.9921 242.111 18.0561C242.111 10.1521 238.223 6.20007 230.447 6.20007H224.543V29.9601H230.447Z" fill="#DD0000"/>
<path d="M313.365 47.7111L280.846 33.9827C279.399 33.3716 278.087 35.0878 279.057 36.3241L288.51 48.3771C288.95 48.9376 288.942 49.7281 288.491 50.2796L279.435 61.3579C278.435 62.5809 279.73 64.3291 281.191 63.729L313.352 50.5211C314.603 50.007 314.612 48.2373 313.365 47.7111Z" fill="#DD0000"/>
<circle cx="335.433" cy="5.45324" r="3.45324" fill="black"/>
<circle cx="335.434" cy="25.0793" r="5.52564" fill="black"/>
<circle cx="335.433" cy="49.5414" r="8.28846" fill="#DD0000"/>
<circle cx="335.434" cy="74.0032" r="5.52564" fill="black"/>
<circle cx="335.433" cy="93.629" r="3.45324" fill="black"/>
<circle cx="361.364" cy="49.3098" r="5.52564" fill="black"/>
<circle cx="380.013" cy="49.3097" r="3.45324" fill="black"/>
</svg>
