<svg width="20" height="21" viewBox="0 0 20 21" fill="none" stroke="#DD0000" xmlns="http://www.w3.org/2000/svg">
<path d="M10 13C11.3807 13 12.5 11.8807 12.5 10.5C12.5 9.11929 11.3807 8 10 8C8.61929 8 7.5 9.11929 7.5 10.5C7.5 11.8807 8.61929 13 10 13Z" stroke-width="1.5"/>
<path d="M11.4707 2.29366C11.1649 2.16699 10.7766 2.16699 9.99989 2.16699C9.22322 2.16699 8.83489 2.16699 8.52905 2.29366C8.3267 2.37742 8.14285 2.50024 7.98799 2.65509C7.83313 2.80995 7.71031 2.99381 7.62655 3.19616C7.54989 3.38199 7.51905 3.59949 7.50739 3.91533C7.50219 4.14365 7.43905 4.36691 7.3239 4.56413C7.20874 4.76136 7.04534 4.92608 6.84905 5.04283C6.6498 5.15453 6.42542 5.21374 6.197 5.21491C5.96857 5.21608 5.7436 5.15915 5.54322 5.04949C5.26322 4.90116 5.06072 4.81949 4.85989 4.79283C4.42182 4.73522 3.9788 4.85391 3.62822 5.12282C3.36655 5.32532 3.17155 5.66116 2.78322 6.33366C2.39489 7.00616 2.19989 7.34199 2.15739 7.67116C2.12875 7.8882 2.14315 8.10876 2.19978 8.32024C2.2564 8.53171 2.35413 8.72996 2.48739 8.90366C2.61072 9.06366 2.78322 9.19782 3.05072 9.36616C3.44489 9.61366 3.69822 10.0353 3.69822 10.5003C3.69822 10.9653 3.44489 11.387 3.05072 11.6337C2.78322 11.8028 2.60989 11.937 2.48739 12.097C2.35413 12.2707 2.2564 12.4689 2.19978 12.6804C2.14315 12.8919 2.12875 13.1124 2.15739 13.3295C2.20072 13.6578 2.39489 13.9945 2.78239 14.667C3.17155 15.3395 3.36572 15.6753 3.62822 15.8778C3.80192 16.0111 4.00017 16.1088 4.21164 16.1654C4.42312 16.2221 4.64368 16.2365 4.86072 16.2078C5.06072 16.1812 5.26322 16.0995 5.54322 15.9512C5.7436 15.8415 5.96857 15.7846 6.197 15.7857C6.42542 15.7869 6.6498 15.8461 6.84905 15.9578C7.25155 16.1912 7.49072 16.6203 7.50739 17.0853C7.51905 17.402 7.54905 17.6187 7.62655 17.8045C7.71031 18.0068 7.83313 18.1907 7.98799 18.3456C8.14285 18.5004 8.3267 18.6232 8.52905 18.707C8.83489 18.8337 9.22322 18.8337 9.99989 18.8337C10.7766 18.8337 11.1649 18.8337 11.4707 18.707C11.6731 18.6232 11.8569 18.5004 12.0118 18.3456C12.1666 18.1907 12.2895 18.0068 12.3732 17.8045C12.4499 17.6187 12.4807 17.402 12.4924 17.0853C12.5091 16.6203 12.7482 16.1903 13.1507 15.9578C13.35 15.8461 13.5744 15.7869 13.8028 15.7857C14.0312 15.7846 14.2562 15.8415 14.4566 15.9512C14.7366 16.0995 14.9391 16.1812 15.1391 16.2078C15.3561 16.2365 15.5767 16.2221 15.7881 16.1654C15.9996 16.1088 16.1979 16.0111 16.3716 15.8778C16.6341 15.6762 16.8282 15.3395 17.2166 14.667C17.6049 13.9945 17.7999 13.6587 17.8424 13.3295C17.871 13.1124 17.8566 12.8919 17.8 12.6804C17.7434 12.4689 17.6456 12.2707 17.5124 12.097C17.3891 11.937 17.2166 11.8028 16.9491 11.6345C16.7538 11.5158 16.592 11.3495 16.4787 11.1511C16.3655 10.9527 16.3045 10.7288 16.3016 10.5003C16.3016 10.0353 16.5549 9.61366 16.9491 9.36699C17.2166 9.19782 17.3899 9.06366 17.5124 8.90366C17.6456 8.72996 17.7434 8.53171 17.8 8.32024C17.8566 8.10876 17.871 7.8882 17.8424 7.67116C17.7991 7.34282 17.6049 7.00616 17.2174 6.33366C16.8282 5.66116 16.6341 5.32532 16.3716 5.12282C16.1979 4.98957 15.9996 4.89184 15.7881 4.83521C15.5767 4.77859 15.3561 4.76419 15.1391 4.79283C14.9391 4.81949 14.7366 4.90116 14.4557 5.04949C14.2554 5.159 14.0306 5.21584 13.8024 5.21468C13.5741 5.21351 13.3499 5.15438 13.1507 5.04283C12.9544 4.92608 12.791 4.76136 12.6759 4.56413C12.5607 4.36691 12.4976 4.14365 12.4924 3.91533C12.4807 3.59866 12.4507 3.38199 12.3732 3.19616C12.2895 2.99381 12.1666 2.80995 12.0118 2.65509C11.8569 2.50024 11.6731 2.37742 11.4707 2.29366Z" stroke-width="1.5"/>
</svg>
